<svg width="1463" height="108" viewBox="0 0 1463 108" fill="none" xmlns="http://www.w3.org/2000/svg">
<path d="M633.044 63.9049V43.1418C633.044 38.4829 629.193 34.6589 624.426 34.6589C623.564 34.6589 622.729 34.7935 621.922 35.0359V34.4165C621.922 29.7576 618.071 25.9335 613.304 25.9335C612.146 25.9335 611.069 26.149 610.045 26.5529C608.699 23.6176 605.683 21.5439 602.209 21.5439C598.735 21.5439 595.719 23.6176 594.372 26.5529C593.376 26.149 592.272 25.9335 591.114 25.9335C586.374 25.9335 582.496 29.7307 582.496 34.4165V54.1023C582.065 53.8869 581.634 53.6445 581.149 53.4829C577.918 52.2172 574.821 52.1903 574.471 52.1903H571.428V77.0467C571.428 81.3016 572.182 85.4219 573.717 89.3537L579.426 87.1993C578.187 83.9677 577.541 80.5745 577.541 77.0467V58.6535C578.026 58.7612 578.537 58.9228 579.022 59.1382C580.638 59.7846 582.469 60.9426 582.523 63.8241V74.8384H588.636V34.4165C588.636 33.07 589.767 31.9659 591.14 31.9659C592.514 31.9659 593.645 33.07 593.645 34.4165V66.0862H599.758V30.0269C599.758 28.6804 600.889 27.5763 602.263 27.5763C603.636 27.5763 604.767 28.6804 604.767 30.0269V66.0862H610.88V34.4165C610.88 33.07 612.011 31.9659 613.385 31.9659C614.758 31.9659 615.889 33.07 615.889 34.4165V68.2944H622.002V43.1687C622.002 41.8222 623.133 40.7181 624.507 40.7181C625.88 40.7181 627.011 41.8222 627.011 43.1687V88.2765L633.124 81.7864V63.9318L633.044 63.9049Z" fill="white"></path>
<path d="M641.527 8.13286C632.128 9.77559 622.487 9.23699 613.304 6.57092C609.157 5.27828 605.387 3.04309 602.263 0C599.166 3.07002 595.369 5.30521 591.222 6.57092C585.674 8.32137 576.329 10.1526 562.999 8.13286L559.121 7.5404V54.4256C559.444 63.5818 562.137 72.4956 567.012 80.2514C570.459 85.9067 574.794 90.9427 579.83 95.1707C586.186 100.422 593.349 104.542 601.051 107.397L602.236 107.855L603.421 107.397C611.123 104.542 618.286 100.422 624.642 95.1707C629.705 90.9427 634.04 85.9067 637.461 80.2514C642.335 72.4956 645.028 63.5818 645.351 54.4256V7.5404L641.5 8.13286H641.527ZM638.672 54.3986C638.322 62.2891 635.952 69.9642 631.778 76.6697C625.369 87.2532 615.459 95.2784 602.29 100.503C589.121 95.2515 579.211 87.2532 572.802 76.6697C568.627 69.9911 566.231 62.2891 565.881 54.3986V15.3501C585.943 17.5314 597.685 11.8223 602.263 8.83304C606.868 11.8223 618.583 17.5584 638.672 15.3501V54.3986Z" fill="white"></path>
<path d="M1140.73 8.13286C1131.33 9.77559 1121.69 9.23699 1112.51 6.57092C1108.36 5.27828 1104.59 3.04309 1101.47 0C1098.37 3.07002 1094.57 5.30521 1090.42 6.57092C1084.88 8.32137 1075.53 10.1526 1062.2 8.13286L1058.32 7.5404V54.4256C1058.65 63.5818 1061.34 72.4956 1066.21 80.2514C1069.66 85.9067 1074 90.9427 1079.03 95.1707C1085.39 100.422 1092.55 104.542 1100.25 107.397L1101.44 107.855L1102.62 107.397C1110.33 104.542 1117.49 100.422 1123.84 95.1707C1128.91 90.9427 1133.24 85.9067 1136.66 80.2514C1141.54 72.4956 1144.23 63.5818 1144.55 54.4256V7.5404L1140.7 8.13286H1140.73ZM1137.87 54.3986C1137.52 62.2891 1135.15 69.9642 1130.98 76.6697C1124.57 87.2532 1114.66 95.2784 1101.49 100.503C1088.32 95.2515 1078.41 87.2532 1072 76.6697C1067.83 69.9911 1065.43 62.2891 1065.08 54.3986V15.3501C1085.15 17.5314 1096.89 11.8223 1101.47 8.83304C1106.07 11.8223 1117.78 17.5584 1137.87 15.3501V54.3986Z" fill="white"></path>
<path d="M1082.16 54.4795L1086.92 49.7129L1096.24 59.0307L1116.01 39.2102L1120.77 44.0037L1096.24 68.5908L1082.16 54.4795Z" fill="white"></path>
<path d="M83.7252 34.6859V23.7523H72.7646V16.9929H83.7252V6.05933H90.4846V16.9929H101.472V23.7523H90.5115V34.6859H83.7252Z" fill="white"></path>
<path d="M53.1598 107.074C23.86 107.074 0 83.2137 0 53.9138C0 24.614 23.86 0.727051 53.1598 0.727051C60.2963 0.727051 67.2442 2.12741 73.7882 4.87427L71.0414 11.3913C65.3861 8.99456 59.3537 7.80964 53.1598 7.80964C27.7648 7.80964 7.08259 28.4919 7.08259 53.9138C7.08259 79.3357 27.7648 99.9911 53.1598 99.9911C78.5548 99.9911 99.2371 79.3088 99.2371 53.9138C99.2371 48.9856 98.4561 44.1382 96.948 39.5063L103.681 37.298C105.431 42.6571 106.347 48.2316 106.347 53.9138C106.347 83.2406 82.4866 107.101 53.1598 107.101V107.074Z" fill="white"></path>
<path d="M42.3884 73.5187H34.2287V40.7988H33.9594L24.8301 47.262V39.7754L33.6362 33.5815H42.3884V73.4918V73.5187Z" fill="white"></path>
<path d="M47.5851 62.8008C47.5851 57.8187 51.3015 53.6985 56.1758 52.8906V52.6482C51.9208 51.7595 49.0124 48.1509 49.0124 43.7882C49.0124 37.6212 54.8831 33.0701 62.8814 33.0701C70.8796 33.0701 76.7772 37.6482 76.7772 43.7882C76.7772 48.1509 73.8149 51.7595 69.6408 52.6482V52.8906C74.3805 53.6985 78.2315 57.8187 78.2315 62.8008C78.2315 69.2909 71.7683 74.0575 62.8544 74.0575C53.9406 74.0575 47.5312 69.2909 47.5312 62.8008H47.5851ZM69.7216 62.1814C69.7216 58.6805 66.8401 56.1222 62.8814 56.1222C58.9226 56.1222 56.0411 58.6267 56.0411 62.1814C56.0411 65.7362 58.7611 68.0252 62.8814 68.0252C67.0016 68.0252 69.7216 65.6554 69.7216 62.1814ZM68.779 44.6769C68.779 41.4992 66.3823 39.3178 62.8814 39.3178C59.3805 39.3178 56.9837 41.4722 56.9837 44.6769C56.9837 47.8816 59.4343 50.1168 62.8814 50.1168C66.3284 50.1168 68.779 47.8546 68.779 44.6769Z" fill="white"></path>
<path d="M1173.61 17.4236H1184.25C1190.47 17.4236 1194.02 21.2746 1194.02 26.6336C1194.02 31.9927 1190.41 35.7899 1184.14 35.7899H1179.21V44.7037H1173.64V17.4236H1173.61ZM1183.22 31.2925C1186.64 31.2925 1188.23 29.3805 1188.23 26.6336C1188.23 23.8868 1186.62 22.0286 1183.2 22.0286H1179.18V31.2656H1183.22V31.2925Z" fill="white"></path>
<path d="M1196.1 34.5779C1196.1 28.2493 1199.95 23.9944 1206.11 23.9944C1212.28 23.9944 1216.13 28.2493 1216.13 34.5779C1216.13 40.9064 1212.25 45.1344 1206.11 45.1344C1199.97 45.1344 1196.1 40.8795 1196.1 34.5779ZM1210.53 34.5509C1210.53 30.9423 1209.02 28.3032 1206.09 28.3032C1203.15 28.3032 1201.67 30.9154 1201.67 34.5509C1201.67 38.1865 1203.15 40.7987 1206.09 40.7987C1209.02 40.7987 1210.53 38.1326 1210.53 34.5509Z" fill="white"></path>
<path d="M1219.42 24.2368H1224.72V27.8185H1224.94C1225.69 25.2871 1227.58 23.9675 1229.89 23.9675C1230.46 23.9675 1231.19 24.0483 1231.67 24.156V29.0573C1231.19 28.9227 1230.11 28.788 1229.3 28.788C1226.77 28.788 1224.91 30.5385 1224.91 33.0699V44.7306H1219.42V24.2638V24.2368Z" fill="white"></path>
<path d="M1245.08 28.4378H1241.26V38.7251C1241.26 40.0177 1241.8 40.6371 1243.12 40.6371C1243.55 40.6371 1244.46 40.5024 1244.87 40.3947L1245.65 44.515C1244.41 44.892 1243.2 44.9997 1242.09 44.9997C1238 44.9997 1235.76 42.9531 1235.76 39.1829V28.4109H1232.94V24.2098H1235.76V19.3354H1241.26V24.2098H1245.08V28.4109V28.4378Z" fill="white"></path>
<path d="M1247.21 38.9945C1247.21 34.4164 1250.9 33.0968 1254.94 32.7198C1258.47 32.3697 1259.89 32.2351 1259.89 30.8886V30.8078C1259.89 29.0573 1258.74 28.0878 1256.69 28.0878C1254.64 28.0878 1253.27 29.1381 1252.81 30.4577L1247.78 29.6229C1248.83 26.0681 1252.11 24.0483 1256.69 24.0483C1261.27 24.0483 1265.36 26.0142 1265.36 30.9963V44.7844H1260.16V41.9568H1259.97C1258.98 43.8688 1257.01 45.1884 1254 45.1884C1250.09 45.1884 1247.18 43.0879 1247.18 39.0484L1247.21 38.9945ZM1259.95 37.3787V35.1704C1259.27 35.6552 1257.09 35.9514 1255.88 36.113C1253.86 36.4092 1252.49 37.1902 1252.49 38.8329C1252.49 40.4756 1253.78 41.2566 1255.59 41.2566C1258.14 41.2566 1259.95 39.56 1259.95 37.3787Z" fill="white"></path>
<path d="M1269.56 24.2368H1274.87V27.8185H1275.08C1275.84 25.2871 1277.72 23.9675 1280.04 23.9675C1280.6 23.9675 1281.33 24.0483 1281.81 24.156V29.0573C1281.33 28.9227 1280.25 28.788 1279.44 28.788C1276.91 28.788 1275.06 30.5385 1275.06 33.0699V44.7306H1269.56V24.2638V24.2368Z" fill="white"></path>
<path d="M1284.32 18.7429C1284.32 17.181 1285.67 15.9153 1287.33 15.9153C1289 15.9153 1290.35 17.181 1290.35 18.7429C1290.35 20.3049 1288.98 21.5706 1287.33 21.5706C1285.69 21.5706 1284.32 20.3318 1284.32 18.7429ZM1284.59 24.2367H1290.08V44.7035H1284.59V24.2367Z" fill="white"></path>
<path d="M1293.13 38.9945C1293.13 34.4164 1296.81 33.0968 1300.85 32.7198C1304.38 32.3697 1305.81 32.2351 1305.81 30.8886V30.8078C1305.81 29.0573 1304.65 28.0878 1302.6 28.0878C1300.56 28.0878 1299.18 29.1381 1298.73 30.4577L1293.69 29.6229C1294.74 26.0681 1298.03 24.0483 1302.6 24.0483C1307.18 24.0483 1311.28 26.0142 1311.28 30.9963V44.7844H1306.08V41.9568H1305.89C1304.89 43.8688 1302.93 45.1884 1299.91 45.1884C1296.01 45.1884 1293.1 43.0879 1293.1 39.0484L1293.13 38.9945ZM1305.86 37.3787V35.1704C1305.19 35.6552 1303.01 35.9514 1301.8 36.113C1299.78 36.4092 1298.4 37.1902 1298.4 38.8329C1298.4 40.4756 1299.7 41.2566 1301.5 41.2566C1304.06 41.2566 1305.86 39.56 1305.86 37.3787Z" fill="white"></path>
<path d="M1323.04 36.2481H1328.48C1328.67 39.0219 1330.88 40.3954 1333.9 40.3954C1336.91 40.3954 1338.85 38.995 1338.85 36.9214C1338.85 35.0632 1337.1 34.2015 1334.14 33.4474L1331.12 32.6934C1326.52 31.5893 1323.74 29.2463 1323.74 25.2876C1323.74 20.3594 1328.08 17.074 1334.01 17.074C1339.93 17.074 1344 20.4133 1344.1 25.2338H1338.69C1338.5 23.0524 1336.75 21.7867 1333.95 21.7867C1331.15 21.7867 1329.48 23.1063 1329.48 24.9375C1329.48 26.9573 1331.53 27.819 1333.84 28.3846L1336.32 28.977C1340.93 30.0273 1344.48 32.3971 1344.48 36.9753C1344.48 41.9304 1340.58 45.135 1333.95 45.135C1327.33 45.135 1323.21 42.065 1323.04 36.2751V36.2481Z" fill="white"></path>
<path d="M1348.01 17.4236H1358.65C1364.87 17.4236 1368.42 21.2746 1368.42 26.6336C1368.42 31.9927 1364.81 35.7899 1358.54 35.7899H1353.61V44.7037H1348.04V17.4236H1348.01ZM1357.62 31.2925C1361.04 31.2925 1362.63 29.3805 1362.63 26.6336C1362.63 23.8868 1361.02 22.0286 1357.6 22.0286H1353.58V31.2656H1357.62V31.2925Z" fill="white"></path>
<path d="M1376.42 17.4236H1383.74L1393.3 44.7037H1387.08L1384.98 38.3751H1375.29L1373.27 44.7037H1367.1L1376.42 17.4236ZM1383.53 34.0125L1382.69 31.5618C1381.81 28.7611 1380.94 25.5295 1380 21.8132C1379.09 25.5564 1378.28 28.815 1377.44 31.5618L1376.66 34.0125H1383.5H1383.53Z" fill="white"></path>
<path d="M1399.39 48.8241H1394.62L1403.4 16.158H1408.17L1399.39 48.8241Z" fill="white"></path>
<path d="M1410.62 17.4236H1419.18L1423.63 29.946C1424.17 31.6696 1425.03 35.3051 1425.65 38.2674C1426.27 35.3051 1427.1 31.6696 1427.67 29.946L1432.03 17.4236H1440.65V44.7037H1435.02V31.8311C1435.02 29.7845 1435.15 25.6642 1435.21 22.2441C1434.29 25.9335 1433.13 29.8922 1432.49 31.8311L1427.96 44.7037H1423.25L1418.65 31.8311C1418 29.946 1416.9 26.122 1415.93 22.4595C1415.98 25.7719 1416.11 29.7845 1416.11 31.8311V44.7037H1410.57V17.4236H1410.62Z" fill="white"></path>
<path d="M1445.04 17.4236H1463V22.0555H1450.64V29.6767H1461.79V34.2279H1450.64V44.7037H1445.06V17.4236H1445.04Z" fill="white"></path>
<path d="M1173.61 59.2192H1179.83L1188.45 73.0343C1189.53 74.8117 1190.68 76.8853 1191.87 79.713C1191.68 77.0469 1191.52 74.1115 1191.52 72.3072V59.2192H1197.23V86.4993H1190.98L1183.14 73.9769C1181.64 71.5263 1180.61 69.5334 1178.94 66.1133C1179.13 69.3988 1179.32 72.3342 1179.32 73.95V86.4993H1173.61V59.2192Z" fill="white"></path>
<path d="M1201.72 65.9788C1201.72 62.1817 1204.26 59.4348 1208.21 59.4348C1212.17 59.4348 1214.73 62.1547 1214.73 65.9788V67.3792C1214.73 71.1494 1212.28 73.8424 1208.27 73.8424C1204.26 73.8424 1201.7 71.1494 1201.72 67.3792V65.9788ZM1204.98 67.3792C1204.98 69.5605 1206.09 71.1494 1208.27 71.1494C1210.45 71.1494 1211.45 69.5605 1211.45 67.3792V65.9788C1211.45 63.8244 1210.4 62.1547 1208.21 62.1547C1206.03 62.1547 1204.98 63.8513 1204.98 65.9788V67.3792Z" fill="white"></path>
<path d="M1227.39 82.4868L1237.06 73.4114C1239.53 70.9877 1240.91 69.4527 1240.91 67.2444C1240.91 64.8207 1239.1 63.3127 1236.68 63.3127C1234.26 63.3127 1232.48 64.9285 1232.48 67.5676H1227.12C1227.12 62.2624 1231.05 58.8423 1236.71 58.8423C1242.36 58.8423 1246.32 62.1816 1246.32 66.8944C1246.32 69.9644 1244.87 72.4689 1239.27 77.6394L1235.14 81.7059V81.8944H1246.67V86.4994H1227.36V82.4599L1227.39 82.4868Z" fill="white"></path>
<path d="M1251.3 83.6982C1251.3 81.9208 1252.68 80.5474 1254.48 80.5474C1256.28 80.5474 1257.66 81.9208 1257.66 83.6982C1257.66 85.4756 1256.28 86.849 1254.48 86.849C1252.68 86.849 1251.3 85.4756 1251.3 83.6982Z" fill="white"></path>
<path d="M1260.84 72.8728C1260.84 64.0398 1264.88 58.8423 1271.74 58.8423C1278.61 58.8423 1282.68 64.0398 1282.68 72.8728C1282.68 81.7059 1278.66 86.8764 1271.74 86.8764C1264.82 86.8764 1260.84 81.7328 1260.84 72.8728ZM1276.99 72.8728C1276.99 66.8674 1275.14 63.4473 1271.74 63.4473C1268.35 63.4473 1266.52 66.8674 1266.52 72.8728C1266.52 78.8782 1268.38 82.2445 1271.74 82.2445C1275.11 82.2445 1276.99 78.8782 1276.99 72.8728Z" fill="white"></path>
<path d="M1285.88 78.9044H1291.4C1291.83 80.8434 1293.37 82.0822 1295.52 82.0822C1299.1 82.0822 1301.04 78.7159 1301.04 73.303H1300.85C1299.61 75.6728 1296.98 77.1271 1294.01 77.1271C1289.17 77.1271 1285.58 73.4377 1285.58 68.294C1285.58 62.7734 1289.68 58.7608 1295.74 58.7877C1301.23 58.8147 1306.51 62.2078 1306.51 72.1719C1306.51 81.3551 1302.2 86.8757 1295.49 86.8757C1290.11 86.8757 1286.39 83.4018 1285.85 78.8775L1285.88 78.9044ZM1300.5 68.1324C1300.5 65.4933 1298.51 63.285 1295.79 63.285C1293.07 63.285 1291.08 65.4394 1291.08 68.1863C1291.08 70.9332 1293.04 73.0606 1295.76 73.0606C1298.48 73.0606 1300.53 70.8524 1300.53 68.1594L1300.5 68.1324Z" fill="white"></path>
<path d="M1309.53 78.8514H1315.15C1315.23 80.8981 1317.23 82.2446 1319.81 82.2446C1322.4 82.2446 1324.39 80.7365 1324.39 78.5013C1324.39 76.2661 1322.48 74.6772 1319.3 74.6772H1316.77V70.53H1319.3C1321.97 70.53 1323.8 69.0489 1323.8 66.8675C1323.8 64.6862 1322.21 63.3397 1319.84 63.3397C1317.47 63.3397 1315.5 64.6862 1315.45 66.8137H1310.06C1310.15 62.1548 1314.32 58.8962 1319.89 58.8962C1325.47 58.8962 1329.24 62.2894 1329.24 66.5444C1329.24 69.6144 1327.14 71.7688 1324.12 72.3612V72.5498C1328.11 73.0884 1330.21 75.5121 1330.21 78.9052C1330.21 83.5641 1325.87 86.9034 1319.79 86.9034C1313.7 86.9034 1309.61 83.618 1309.53 78.8783V78.8514Z" fill="white"></path>
<path d="M1336.7 90.6195H1331.93L1340.71 57.9534H1345.48L1336.7 90.6195Z" fill="white"></path>
<path d="M1347.71 82.4868L1357.38 73.4114C1359.86 70.9877 1361.23 69.4527 1361.23 67.2444C1361.23 64.8207 1359.43 63.3127 1357 63.3127C1354.58 63.3127 1352.8 64.9285 1352.8 67.5676H1347.44C1347.44 62.2624 1351.38 58.8423 1357.03 58.8423C1362.69 58.8423 1366.64 62.1816 1366.64 66.8944C1366.64 69.9644 1365.19 72.4689 1359.59 77.6394L1355.47 81.7059V81.8944H1366.99V86.4994H1347.69V82.4599L1347.71 82.4868Z" fill="white"></path>
<path d="M1370.28 72.8728C1370.28 64.0398 1374.32 58.8423 1381.19 58.8423C1388.05 58.8423 1392.12 64.0398 1392.12 72.8728C1392.12 81.7059 1388.11 86.8764 1381.19 86.8764C1374.27 86.8764 1370.28 81.7328 1370.28 72.8728ZM1386.44 72.8728C1386.44 66.8674 1384.58 63.4473 1381.19 63.4473C1377.79 63.4473 1375.96 66.8674 1375.96 72.8728C1375.96 78.8782 1377.82 82.2445 1381.19 82.2445C1384.55 82.2445 1386.44 78.8782 1386.44 72.8728Z" fill="white"></path>
<path d="M1395.59 82.4868L1405.26 73.4114C1407.74 70.9877 1409.11 69.4527 1409.11 67.2444C1409.11 64.8207 1407.31 63.3127 1404.88 63.3127C1402.46 63.3127 1400.68 64.9285 1400.68 67.5676H1395.32C1395.32 62.2624 1399.26 58.8423 1404.91 58.8423C1410.57 58.8423 1414.53 62.1816 1414.53 66.8944C1414.53 69.9644 1413.07 72.4689 1407.47 77.6394L1403.35 81.7059V81.8944H1414.88V86.4994H1395.57V82.4599L1395.59 82.4868Z" fill="white"></path>
<path d="M1417.68 77.2354L1429.09 59.2192H1436.1V77.1546H1439.52V81.6519H1436.1V86.4993H1430.74V81.6519H1417.68V77.2354ZM1430.85 65.3862H1430.63L1423.33 76.9392V77.1546H1430.87V65.3862H1430.85Z" fill="white"></path>
<path d="M673.197 36.5171V34.9282H678.771V36.6248C678.771 39.237 680.145 40.6104 682.326 40.6104C684.507 40.6104 685.854 39.2639 685.854 36.6248V17.4775H691.375V36.544C691.375 42.0646 687.928 45.1347 682.299 45.1347C676.671 45.1347 673.17 42.0646 673.17 36.5709L673.197 36.5171Z" fill="white"></path>
<path d="M694.821 34.5779C694.821 28.2493 698.672 23.9944 704.839 23.9944C711.005 23.9944 714.856 28.2493 714.856 34.5779C714.856 40.9064 710.979 45.1344 704.839 45.1344C698.698 45.1344 694.821 40.8795 694.821 34.5779ZM709.282 34.5509C709.282 30.9423 707.774 28.3032 704.839 28.3032C701.903 28.3032 700.422 30.9154 700.422 34.5509C700.422 38.1865 701.903 40.7987 704.839 40.7987C707.774 40.7987 709.282 38.1326 709.282 34.5509Z" fill="white"></path>
<path d="M718.062 47.8005L722.775 46.4809C723.286 47.6389 724.552 48.8239 727.218 48.8239C729.884 48.8239 731.715 47.5581 731.715 44.8651V41.0949H731.285C730.531 42.7377 728.915 44.4343 725.602 44.4343C720.997 44.4343 717.281 41.2296 717.281 34.4432C717.281 27.6569 721.078 23.9944 725.629 23.9944C729.076 23.9944 730.746 26.068 731.5 27.6838H731.742V24.2368H737.155V44.542C737.155 50.0896 733.008 52.8095 727.245 52.8095C722.128 52.8095 718.924 50.709 718.035 47.8005H718.062ZM731.769 34.3894C731.769 30.7538 730.207 28.357 727.38 28.357C724.552 28.357 722.963 30.8615 722.963 34.3894C722.963 37.9172 724.525 40.2332 727.38 40.2332C730.234 40.2332 731.769 38.0519 731.769 34.3894Z" fill="white"></path>
<path d="M741.356 37.2712V24.2371H746.85V36.3017C746.85 38.8601 748.251 40.3681 750.54 40.3681C752.829 40.3681 754.525 38.8062 754.525 36.0863V24.2371H760.046V44.7039H754.848L754.768 40.4489C753.61 43.3304 751.536 44.9462 748.412 44.9462C744.157 44.9462 741.356 42.0378 741.356 37.2443V37.2712Z" fill="white"></path>
<path d="M763.304 34.578C763.304 28.2494 767.155 23.9675 773.134 23.9675C778.493 23.9675 782.748 27.3607 782.748 34.3625V35.8975H768.744C768.879 39.2368 770.737 40.9604 773.511 40.9604C775.423 40.9604 776.877 40.1255 777.469 38.5367L782.451 39.4792C781.455 42.8993 778.197 45.1076 773.43 45.1076C767.155 45.1076 763.331 41.0412 763.331 34.578H763.304ZM777.469 32.4505C777.2 29.7844 775.746 28.1148 773.214 28.1148C770.683 28.1148 769.013 29.9191 768.798 32.4505H777.469Z" fill="white"></path>
<path d="M793.493 34.5779C793.493 28.2493 797.344 23.9944 803.511 23.9944C808.358 23.9944 811.832 26.6066 812.613 30.8077L807.496 31.7502C807.039 29.6228 805.692 28.3032 803.565 28.3032C800.629 28.3032 799.094 30.8615 799.094 34.5509C799.094 38.2404 800.629 40.7987 803.565 40.7987C805.692 40.7987 807.092 39.4522 807.55 37.217L812.667 38.1596C811.886 42.4684 808.439 45.1075 803.538 45.1075C797.371 45.1075 793.52 40.8526 793.52 34.5509L793.493 34.5779Z" fill="white"></path>
<path d="M815.036 34.5779C815.036 28.2493 818.887 23.9944 825.054 23.9944C831.221 23.9944 835.072 28.2493 835.072 34.5779C835.072 40.9064 831.194 45.1344 825.054 45.1344C818.914 45.1344 815.036 40.8795 815.036 34.5779ZM829.498 34.5509C829.498 30.9423 827.99 28.3032 825.054 28.3032C822.119 28.3032 820.638 30.9154 820.638 34.5509C820.638 38.1865 822.119 40.7987 825.054 40.7987C827.99 40.7987 829.498 38.1326 829.498 34.5509Z" fill="white"></path>
<path d="M838.385 24.2367H843.474L843.69 28.2223C844.794 25.2331 847.083 23.9404 849.534 23.9404C852.146 23.9404 853.87 25.4216 854.812 28.5455C855.97 25.3947 858.555 23.9404 861.383 23.9404C865.126 23.9404 867.927 26.4718 867.927 30.9153V44.7304H862.406V31.9656C862.406 29.6496 861.006 28.5455 859.175 28.5455C857.074 28.5455 855.808 29.9997 855.808 32.1272V44.7304H850.503V31.8309C850.503 29.8381 849.184 28.5455 847.326 28.5455C845.467 28.5455 843.905 29.892 843.905 32.3426V44.7304H838.412V24.2636L838.385 24.2367Z" fill="white"></path>
<path d="M674.301 66.032H679.606V69.6137H679.822C680.576 67.0823 682.461 65.7627 684.777 65.7627C685.342 65.7627 686.069 65.8435 686.554 65.9512V70.8525C686.069 70.7178 684.992 70.5832 684.184 70.5832C681.653 70.5832 679.795 72.3336 679.795 74.865V86.5257H674.301V66.0589V66.032Z" fill="white"></path>
<path d="M687.254 76.3731C687.254 70.0446 691.105 65.7627 697.084 65.7627C702.443 65.7627 706.698 69.1559 706.698 76.1577V77.6927H692.694C692.829 81.032 694.687 82.7555 697.461 82.7555C699.373 82.7555 700.827 81.9207 701.42 80.3318L706.402 81.2744C705.405 84.6945 702.147 86.9028 697.38 86.9028C691.105 86.9028 687.281 82.8363 687.281 76.3731H687.254ZM701.42 74.2456C701.15 71.5796 699.696 69.9099 697.165 69.9099C694.633 69.9099 692.964 71.7142 692.748 74.2456H701.42Z" fill="white"></path>
<path d="M709.041 80.8974L714.157 80.0087C714.696 81.9207 716.015 82.8633 718.251 82.8633C720.351 82.8633 721.644 81.9746 721.644 80.7627C721.644 79.6855 720.809 79.0123 719.005 78.6622L715.477 77.9351C711.518 77.1272 709.579 75.1882 709.579 72.1182C709.579 68.1864 712.999 65.7627 718.197 65.7627C723.044 65.7627 725.953 67.8902 726.733 71.2295L721.859 72.0912C721.428 70.6909 720.27 69.7214 718.278 69.7214C716.473 69.7214 715.1 70.5562 715.1 71.795C715.1 72.8184 715.8 73.5455 717.739 73.9494L721.428 74.6765C725.387 75.4844 727.299 77.2887 727.299 80.1972C727.299 84.2367 723.502 86.9297 718.143 86.9297C713.188 86.9297 709.821 84.7214 709.094 80.9243L709.041 80.8974Z" fill="white"></path>
<path d="M730.423 66.0322H735.835V69.4792H736.105C736.859 67.8365 738.475 65.7898 741.949 65.7898C746.5 65.7898 750.243 69.3176 750.243 76.3194C750.243 83.3212 746.634 86.876 741.922 86.876C738.582 86.876 736.886 84.9101 736.105 83.2404H735.943V94.174H730.449V66.0322H730.423ZM744.615 76.2925C744.615 72.7108 743.107 70.1794 740.225 70.1794C737.344 70.1794 735.809 72.5762 735.809 76.2925C735.809 80.0088 737.424 82.4595 740.225 82.4595C743.026 82.4595 744.615 79.9011 744.615 76.2925Z" fill="white"></path>
<path d="M752.694 76.3733C752.694 70.0447 756.545 65.7898 762.712 65.7898C768.879 65.7898 772.73 70.0447 772.73 76.3733C772.73 82.7018 768.852 86.9298 762.712 86.9298C756.572 86.9298 752.694 82.6749 752.694 76.3733ZM767.128 76.3464C767.128 72.7377 765.62 70.0986 762.685 70.0986C759.749 70.0986 758.268 72.7108 758.268 76.3464C758.268 79.9819 759.749 82.5941 762.685 82.5941C765.62 82.5941 767.128 79.9281 767.128 76.3464Z" fill="white"></path>
<path d="M781.536 86.4988H776.042V66.032H781.213L781.293 70.26C782.451 67.4054 784.525 65.7627 787.676 65.7627C791.931 65.7627 794.704 68.6711 794.704 73.4647V86.4988H789.211V74.4342C789.211 71.8758 787.81 70.3677 785.521 70.3677C783.232 70.3677 781.536 71.9297 781.536 74.6496V86.4988Z" fill="white"></path>
<path d="M797.936 80.8974L803.052 80.0087C803.591 81.9207 804.91 82.8633 807.146 82.8633C809.246 82.8633 810.539 81.9746 810.539 80.7627C810.539 79.6855 809.704 79.0123 807.9 78.6622L804.372 77.9351C800.413 77.1272 798.474 75.1882 798.474 72.1182C798.474 68.1864 801.894 65.7627 807.092 65.7627C811.939 65.7627 814.848 67.8902 815.629 71.2295L810.754 72.0912C810.323 70.6909 809.165 69.7214 807.173 69.7214C805.368 69.7214 803.995 70.5562 803.995 71.795C803.995 72.8184 804.695 73.5455 806.634 73.9494L810.323 74.6765C814.282 75.4844 816.194 77.2887 816.194 80.1972C816.194 84.2367 812.397 86.9297 807.038 86.9297C802.083 86.9297 798.717 84.7214 797.989 80.9243L797.936 80.8974Z" fill="white"></path>
<path d="M818.242 80.7899C818.242 76.2118 821.931 74.8922 825.971 74.5152C829.499 74.1651 830.926 74.0305 830.926 72.684V72.6032C830.926 70.8527 829.768 69.8833 827.721 69.8833C825.674 69.8833 824.301 70.9335 823.843 72.2531L818.807 71.4183C819.858 67.8635 823.143 65.8438 827.721 65.8438C832.299 65.8438 836.393 67.8096 836.393 72.7917V86.5799H831.195V83.7522H831.007C830.01 85.6642 828.044 86.9838 825.028 86.9838C821.123 86.9838 818.215 84.8833 818.215 80.8438L818.242 80.7899ZM830.98 79.1741V76.9658C830.306 77.4506 828.125 77.7468 826.913 77.9084C824.894 78.2046 823.52 78.9856 823.52 80.6283C823.52 82.2711 824.813 83.052 826.617 83.052C829.175 83.052 830.98 81.3554 830.98 79.1741Z" fill="white"></path>
<path d="M846.248 83.2405H845.979V86.526H840.566V59.2458H846.06V69.5062H846.221C846.976 67.8635 848.591 65.8168 852.065 65.8168C856.616 65.8168 860.36 69.3446 860.36 76.3464C860.36 83.3482 856.751 86.903 852.038 86.903C848.699 86.903 847.002 84.9371 846.221 83.2674L846.248 83.2405ZM854.758 76.2925C854.758 72.7109 853.25 70.1794 850.369 70.1794C847.487 70.1794 845.952 72.5762 845.952 76.2925C845.952 80.0089 847.568 82.4595 850.369 82.4595C853.169 82.4595 854.758 79.9012 854.758 76.2925Z" fill="white"></path>
<path d="M863.43 60.5386C863.43 58.9766 864.777 57.7109 866.446 57.7109C868.116 57.7109 869.462 58.9766 869.462 60.5386C869.462 62.1005 868.089 63.3662 866.446 63.3662C864.804 63.3662 863.43 62.1275 863.43 60.5386ZM863.699 66.0323H869.193V86.4991H863.699V66.0323Z" fill="white"></path>
<path d="M878.861 86.4993H873.367V59.2192H878.861V86.4993Z" fill="white"></path>
<path d="M882.711 60.5386C882.711 58.9766 884.058 57.7109 885.728 57.7109C887.397 57.7109 888.744 58.9766 888.744 60.5386C888.744 62.1005 887.37 63.3662 885.728 63.3662C884.085 63.3662 882.711 62.1275 882.711 60.5386ZM882.981 66.0323H888.474V86.4991H882.981V66.0323Z" fill="white"></path>
<path d="M891.761 76.3198C891.761 69.318 895.531 65.7902 900.082 65.7902C903.556 65.7902 905.172 67.8638 905.899 69.4796H906.087V59.2192H911.581V86.4993H906.168V83.2139H905.899C905.145 84.8566 903.448 86.8494 900.109 86.8494C895.396 86.8494 891.761 83.1062 891.761 76.2929V76.3198ZM906.195 76.2929C906.195 72.5765 904.633 70.1798 901.806 70.1798C898.978 70.1798 897.416 72.7112 897.416 76.2929C897.416 79.8746 898.951 82.4598 901.806 82.4598C904.66 82.4598 906.195 80.0092 906.195 76.2929Z" fill="white"></path>
<path d="M914.65 80.7899C914.65 76.2118 918.34 74.8922 922.379 74.5152C925.907 74.1651 927.335 74.0305 927.335 72.684V72.6032C927.335 70.8527 926.177 69.8833 924.13 69.8833C922.083 69.8833 920.71 70.9335 920.252 72.2531L915.216 71.4183C916.266 67.8635 919.552 65.8438 924.13 65.8438C928.708 65.8438 932.801 67.8096 932.801 72.7917V86.5799H927.604V83.7522H927.415C926.419 85.6642 924.453 86.9838 921.437 86.9838C917.532 86.9838 914.624 84.8833 914.624 80.8438L914.65 80.7899ZM927.388 79.1741V76.9658C926.715 77.4506 924.534 77.7468 923.322 77.9084C921.302 78.2046 919.929 78.9856 919.929 80.6283C919.929 82.2711 921.221 83.052 923.026 83.052C925.584 83.052 927.388 81.3554 927.388 79.1741Z" fill="white"></path>
<path d="M936.141 76.3198C936.141 69.318 939.912 65.7902 944.463 65.7902C947.937 65.7902 949.553 67.8638 950.28 69.4796H950.468V59.2192H955.962V86.4993H950.549V83.2139H950.28C949.526 84.8566 947.829 86.8494 944.49 86.8494C939.777 86.8494 936.141 83.1062 936.141 76.2929V76.3198ZM950.576 76.2929C950.576 72.5765 949.014 70.1798 946.186 70.1798C943.359 70.1798 941.797 72.7112 941.797 76.2929C941.797 79.8746 943.332 82.4598 946.186 82.4598C949.041 82.4598 950.576 80.0092 950.576 76.2929Z" fill="white"></path>
<path d="M959.274 76.3731C959.274 70.0446 963.125 65.7627 969.103 65.7627C974.462 65.7627 978.717 69.1559 978.717 76.1577V77.6927H964.714C964.848 81.032 966.707 82.7555 969.48 82.7555C971.392 82.7555 972.847 81.9207 973.439 80.3318L978.421 81.2744C977.425 84.6945 974.166 86.9028 969.4 86.9028C963.125 86.9028 959.301 82.8363 959.301 76.3731H959.274ZM973.412 74.2456C973.143 71.5796 971.689 69.9099 969.157 69.9099C966.626 69.9099 964.956 71.7142 964.741 74.2456H973.412Z" fill="white"></path>
<path d="M130.233 17.4236H140.871C147.092 17.4236 150.646 21.2746 150.646 26.6336C150.646 31.9927 147.038 35.7899 140.763 35.7899H135.835V44.7037H130.26V17.4236H130.233ZM139.847 31.2925C143.268 31.2925 144.856 29.3805 144.856 26.6336C144.856 23.8868 143.241 22.0286 139.82 22.0286H135.808V31.2656H139.847V31.2925Z" fill="white"></path>
<path d="M153.878 24.2368H159.184V27.8185H159.399C160.153 25.2871 162.038 23.9675 164.354 23.9675C164.92 23.9675 165.647 24.0483 166.132 24.156V29.0573C165.647 28.9227 164.57 28.788 163.762 28.788C161.23 28.788 159.372 30.5385 159.372 33.0699V44.7306H153.878V24.2638V24.2368Z" fill="white"></path>
<path d="M166.858 34.5779C166.858 28.2493 170.709 23.9944 176.876 23.9944C183.043 23.9944 186.894 28.2493 186.894 34.5779C186.894 40.9064 183.016 45.1344 176.876 45.1344C170.736 45.1344 166.858 40.8795 166.858 34.5779ZM181.293 34.5509C181.293 30.9423 179.785 28.3032 176.849 28.3032C173.914 28.3032 172.433 30.9154 172.433 34.5509C172.433 38.1865 173.914 40.7987 176.849 40.7987C179.785 40.7987 181.293 38.1326 181.293 34.5509Z" fill="white"></path>
<path d="M189.91 18.7429C189.91 17.181 191.257 15.9153 192.926 15.9153C194.596 15.9153 195.942 17.181 195.942 18.7429C195.942 20.3049 194.569 21.5706 192.926 21.5706C191.284 21.5706 189.91 20.3318 189.91 18.7429ZM190.179 24.2367H195.673V44.7035H190.179V24.2367Z" fill="white"></path>
<path d="M205.476 41.4452H205.206V44.7306H199.793V17.4236H205.287V27.6839H205.449C206.203 26.0412 207.819 23.9945 211.293 23.9945C215.844 23.9945 219.587 27.5223 219.587 34.5241C219.587 41.5259 215.978 45.0807 211.266 45.0807C207.926 45.0807 206.23 43.1148 205.449 41.4452H205.476ZM214.012 34.4972C214.012 30.9155 212.504 28.3841 209.623 28.3841C206.741 28.3841 205.206 30.7809 205.206 34.4972C205.206 38.2136 206.822 40.6642 209.623 40.6642C212.424 40.6642 214.012 38.1058 214.012 34.4972Z" fill="white"></path>
<path d="M222.684 18.7429C222.684 17.181 224.031 15.9153 225.7 15.9153C227.37 15.9153 228.716 17.181 228.716 18.7429C228.716 20.3049 227.343 21.5706 225.7 21.5706C224.057 21.5706 222.684 20.3318 222.684 18.7429ZM222.953 24.2367H228.447V44.7035H222.953V24.2367Z" fill="white"></path>
<path d="M231.732 34.5241C231.732 27.5223 235.502 23.9945 240.053 23.9945C243.527 23.9945 245.143 26.0681 245.87 27.6839H246.059V17.4236H251.552V44.7037H246.139V41.4182H245.87C245.116 43.061 243.42 45.0538 240.08 45.0538C235.367 45.0538 231.732 41.3105 231.732 34.4972V34.5241ZM246.166 34.4972C246.166 30.7809 244.604 28.3841 241.777 28.3841C238.949 28.3841 237.387 30.9155 237.387 34.4972C237.387 38.0789 238.922 40.6642 241.777 40.6642C244.631 40.6642 246.166 38.2136 246.166 34.4972Z" fill="white"></path>
<path d="M254.838 34.5779C254.838 28.2493 258.689 23.9944 264.856 23.9944C271.023 23.9944 274.874 28.2493 274.874 34.5779C274.874 40.9064 270.996 45.1344 264.856 45.1344C258.716 45.1344 254.838 40.8795 254.838 34.5779ZM269.3 34.5509C269.3 30.9423 267.792 28.3032 264.856 28.3032C261.921 28.3032 260.44 30.9154 260.44 34.5509C260.44 38.1865 261.921 40.7987 264.856 40.7987C267.792 40.7987 269.3 38.1326 269.3 34.5509Z" fill="white"></path>
<path d="M286.535 24.2368H291.948V27.6838H292.217C292.971 26.0411 294.587 23.9944 298.061 23.9944C302.612 23.9944 306.356 27.5222 306.356 34.524C306.356 41.5258 302.747 45.0806 298.034 45.0806C294.695 45.0806 292.998 43.1147 292.217 41.445H292.056V52.3786H286.562V24.2368H286.535ZM300.727 34.4971C300.727 30.9154 299.219 28.384 296.338 28.384C293.456 28.384 291.921 30.7807 291.921 34.4971C291.921 38.2134 293.537 40.6641 296.338 40.6641C299.138 40.6641 300.727 38.1057 300.727 34.4971Z" fill="white"></path>
<path d="M308.941 38.9945C308.941 34.4164 312.63 33.0968 316.67 32.7198C320.198 32.3697 321.625 32.2351 321.625 30.8886V30.8078C321.625 29.0573 320.467 28.0878 318.42 28.0878C316.374 28.0878 315 29.1381 314.542 30.4577L309.507 29.6229C310.557 26.0681 313.842 24.0483 318.42 24.0483C322.998 24.0483 327.092 26.0142 327.092 30.9963V44.7844H321.894V41.9568H321.706C320.709 43.8688 318.744 45.1884 315.727 45.1884C311.823 45.1884 308.914 43.0879 308.914 39.0484L308.941 38.9945ZM321.652 37.3787V35.1704C320.979 35.6552 318.797 35.9514 317.586 36.113C315.566 36.4092 314.192 37.1902 314.192 38.8329C314.192 40.4756 315.485 41.2566 317.289 41.2566C319.848 41.2566 321.652 39.56 321.652 37.3787Z" fill="white"></path>
<path d="M331.293 24.2368H336.598V27.8185H336.814C337.568 25.2871 339.453 23.9675 341.769 23.9675C342.334 23.9675 343.061 24.0483 343.546 24.156V29.0573C343.061 28.9227 341.984 28.788 341.176 28.788C338.645 28.788 336.787 30.5385 336.787 33.0699V44.7306H331.293V24.2638V24.2368Z" fill="white"></path>
<path d="M344.435 38.9945C344.435 34.4164 348.125 33.0968 352.164 32.7198C355.692 32.3697 357.119 32.2351 357.119 30.8886V30.8078C357.119 29.0573 355.961 28.0878 353.914 28.0878C351.868 28.0878 350.494 29.1381 350.037 30.4577L345.001 29.6229C346.051 26.0681 349.336 24.0483 353.914 24.0483C358.493 24.0483 362.586 26.0142 362.586 30.9963V44.7844H357.388V41.9568H357.2C356.204 43.8688 354.238 45.1884 351.221 45.1884C347.317 45.1884 344.408 43.0879 344.408 39.0484L344.435 38.9945ZM357.146 37.3787V35.1704C356.473 35.6552 354.292 35.9514 353.08 36.113C351.06 36.4092 349.687 37.1902 349.687 38.8329C349.687 40.4756 350.979 41.2566 352.783 41.2566C355.342 41.2566 357.146 39.56 357.146 37.3787Z" fill="white"></path>
<path d="M130.099 66.0321H135.189L135.404 70.0177C136.508 67.0285 138.798 65.7358 141.248 65.7358C143.86 65.7358 145.584 67.217 146.526 70.3409C147.684 67.1901 150.27 65.7358 153.097 65.7358C156.841 65.7358 159.641 68.2673 159.641 72.7107V86.5258H154.121V73.761C154.121 71.445 152.72 70.3409 150.889 70.3409C148.789 70.3409 147.523 71.7951 147.523 73.9226V86.5258H142.218V73.6263C142.218 71.6335 140.898 70.3409 139.04 70.3409C137.182 70.3409 135.62 71.6874 135.62 74.138V86.5258H130.126V66.059L130.099 66.0321Z" fill="white"></path>
<path d="M162.926 76.3731C162.926 70.0446 166.777 65.7627 172.756 65.7627C178.115 65.7627 182.37 69.1559 182.37 76.1577V77.6927H168.366C168.501 81.032 170.359 82.7555 173.133 82.7555C175.045 82.7555 176.499 81.9207 177.091 80.3318L182.074 81.2744C181.077 84.6945 177.819 86.9028 173.052 86.9028C166.777 86.9028 162.953 82.8363 162.953 76.3731H162.926ZM177.091 74.2456C176.822 71.5796 175.368 69.9099 172.837 69.9099C170.305 69.9099 168.635 71.7142 168.42 74.2456H177.091Z" fill="white"></path>
<path d="M191.123 86.4988H185.629V66.032H190.799L190.88 70.26C192.038 67.4054 194.112 65.7627 197.263 65.7627C201.518 65.7627 204.291 68.6711 204.291 73.4647V86.4988H198.798V74.4342C198.798 71.8758 197.397 70.3677 195.108 70.3677C192.819 70.3677 191.123 71.9297 191.123 74.6496V86.4988Z" fill="white"></path>
<path d="M207.577 76.3733C207.577 70.0447 211.428 65.7898 217.595 65.7898C223.762 65.7898 227.613 70.0447 227.613 76.3733C227.613 82.7018 223.735 86.9298 217.595 86.9298C211.455 86.9298 207.577 82.6749 207.577 76.3733ZM222.038 76.3464C222.038 72.7377 220.53 70.0986 217.595 70.0986C214.659 70.0986 213.178 72.7108 213.178 76.3464C213.178 79.9819 214.659 82.5941 217.595 82.5941C220.53 82.5941 222.038 79.9281 222.038 76.3464Z" fill="white"></path>
<path d="M230.925 66.032H236.23V69.6137H236.445C237.2 67.0823 239.085 65.7627 241.401 65.7627C241.966 65.7627 242.693 65.8435 243.178 65.9512V70.8525C242.693 70.7178 241.616 70.5832 240.808 70.5832C238.277 70.5832 236.419 72.3336 236.419 74.865V86.5257H230.925V66.0589V66.032Z" fill="white"></path>
<path d="M243.905 76.3731C243.905 70.0446 247.756 65.7627 253.734 65.7627C259.093 65.7627 263.348 69.1559 263.348 76.1577V77.6927H249.345C249.479 81.032 251.337 82.7555 254.111 82.7555C256.023 82.7555 257.478 81.9207 258.07 80.3318L263.052 81.2744C262.056 84.6945 258.797 86.9028 254.03 86.9028C247.756 86.9028 243.932 82.8363 243.932 76.3731H243.905ZM258.07 74.2456C257.801 71.5796 256.346 69.9099 253.815 69.9099C251.284 69.9099 249.614 71.7142 249.399 74.2456H258.07Z" fill="white"></path>
<path d="M265.664 80.8974L270.781 80.0087C271.319 81.9207 272.639 82.8633 274.874 82.8633C276.975 82.8633 278.267 81.9746 278.267 80.7627C278.267 79.6855 277.432 79.0123 275.628 78.6622L272.1 77.9351C268.142 77.1272 266.203 75.1882 266.203 72.1182C266.203 68.1864 269.623 65.7627 274.82 65.7627C279.668 65.7627 282.576 67.8902 283.357 71.2295L278.483 72.0912C278.052 70.6909 276.894 69.7214 274.901 69.7214C273.097 69.7214 271.723 70.5562 271.723 71.795C271.723 72.8184 272.423 73.5455 274.362 73.9494L278.052 74.6765C282.011 75.4844 283.923 77.2887 283.923 80.1972C283.923 84.2367 280.125 86.9297 274.766 86.9297C269.811 86.9297 266.445 84.7214 265.718 80.9243L265.664 80.8974Z" fill="white"></path>
<path d="M294.56 76.3198C294.56 69.318 298.33 65.7902 302.881 65.7902C306.355 65.7902 307.971 67.8638 308.698 69.4796H308.887V59.2192H314.381V86.4993H308.968V83.2139H308.698C307.944 84.8566 306.248 86.8494 302.908 86.8494C298.196 86.8494 294.56 83.1062 294.56 76.2929V76.3198ZM308.995 76.2929C308.995 72.5765 307.433 70.1798 304.605 70.1798C301.777 70.1798 300.215 72.7112 300.215 76.2929C300.215 79.8746 301.75 82.4598 304.605 82.4598C307.46 82.4598 308.995 80.0092 308.995 76.2929Z" fill="white"></path>
<path d="M317.694 76.3731C317.694 70.0446 321.545 65.7627 327.523 65.7627C332.882 65.7627 337.137 69.1559 337.137 76.1577V77.6927H323.134C323.268 81.032 325.127 82.7555 327.9 82.7555C329.812 82.7555 331.267 81.9207 331.859 80.3318L336.841 81.2744C335.845 84.6945 332.586 86.9028 327.82 86.9028C321.545 86.9028 317.721 82.8363 317.721 76.3731H317.694ZM331.832 74.2456C331.563 71.5796 330.109 69.9099 327.577 69.9099C325.046 69.9099 323.376 71.7142 323.161 74.2456H331.832Z" fill="white"></path>
<path d="M360.107 86.4993H354.533V64.1474H354.344L348.097 68.564V63.4472L354.129 59.2192H360.107V86.4993Z" fill="white"></path>
<path d="M363.744 79.1744C363.744 75.7543 366.302 72.9536 369.614 72.3881V72.2265C366.706 71.634 364.713 69.1565 364.713 66.1672C364.713 61.9662 368.726 58.8423 374.193 58.8423C379.659 58.8423 383.699 61.9662 383.699 66.1672C383.699 69.1565 381.679 71.634 378.825 72.2265V72.3881C382.056 72.9267 384.695 75.7543 384.695 79.1744C384.695 83.6179 380.279 86.8764 374.193 86.8764C368.106 86.8764 363.717 83.6179 363.717 79.1744H363.744ZM378.905 78.7436C378.905 76.3468 376.939 74.5963 374.246 74.5963C371.553 74.5963 369.588 76.3199 369.588 78.7436C369.588 81.1673 371.446 82.7292 374.246 82.7292C377.047 82.7292 378.905 81.0865 378.905 78.7436ZM378.259 66.7866C378.259 64.6053 376.616 63.1242 374.22 63.1242C371.823 63.1242 370.18 64.5784 370.18 66.7866C370.18 68.9949 371.877 70.503 374.22 70.503C376.562 70.503 378.259 68.968 378.259 66.7866Z" fill="white"></path>
<path d="M395.521 80.7899C395.521 76.2118 399.21 74.8922 403.25 74.5152C406.777 74.1651 408.205 74.0305 408.205 72.684V72.6032C408.205 70.8527 407.047 69.8833 405 69.8833C402.953 69.8833 401.58 70.9335 401.122 72.2531L396.086 71.4183C397.136 67.8635 400.422 65.8438 405 65.8438C409.578 65.8438 413.671 67.8096 413.671 72.7917V86.5799H408.474V83.7522H408.285C407.289 85.6642 405.323 86.9838 402.307 86.9838C398.402 86.9838 395.494 84.8833 395.494 80.8438L395.521 80.7899ZM408.258 79.1741V76.9658C407.585 77.4506 405.404 77.7468 404.192 77.9084C402.172 78.2046 400.799 78.9856 400.799 80.6283C400.799 82.2711 402.091 83.052 403.896 83.052C406.454 83.052 408.258 81.3554 408.258 79.1741Z" fill="white"></path>
<path d="M423.367 86.4988H417.873V66.032H423.043L423.124 70.26C424.282 67.4054 426.356 65.7627 429.507 65.7627C433.762 65.7627 436.535 68.6711 436.535 73.4647V86.4988H431.042V74.4342C431.042 71.8758 429.641 70.3677 427.352 70.3677C425.063 70.3677 423.367 71.9297 423.367 74.6496V86.4988Z" fill="white"></path>
<path d="M439.848 76.3733C439.848 70.0447 443.699 65.7898 449.866 65.7898C456.033 65.7898 459.884 70.0447 459.884 76.3733C459.884 82.7018 456.006 86.9298 449.866 86.9298C443.726 86.9298 439.848 82.6749 439.848 76.3733ZM454.283 76.3464C454.283 72.7377 452.775 70.0986 449.839 70.0986C446.904 70.0986 445.423 72.7108 445.423 76.3464C445.423 79.9819 446.904 82.5941 449.839 82.5941C452.775 82.5941 454.283 79.9281 454.283 76.3464Z" fill="white"></path>
<path d="M462.253 80.8974L467.37 80.0087C467.909 81.9207 469.228 82.8633 471.464 82.8633C473.564 82.8633 474.857 81.9746 474.857 80.7627C474.857 79.6855 474.022 79.0123 472.218 78.6622L468.69 77.9351C464.731 77.1272 462.792 75.1882 462.792 72.1182C462.792 68.1864 466.212 65.7627 471.41 65.7627C476.257 65.7627 479.165 67.8902 479.946 71.2295L475.072 72.0912C474.641 70.6909 473.483 69.7214 471.49 69.7214C469.686 69.7214 468.313 70.5562 468.313 71.795C468.313 72.8184 469.013 73.5455 470.952 73.9494L474.641 74.6765C478.6 75.4844 480.512 77.2887 480.512 80.1972C480.512 84.2367 476.715 86.9297 471.356 86.9297C466.401 86.9297 463.034 84.7214 462.307 80.9243L462.253 80.8974Z" fill="white"></path>
</svg>