<svg width="139" height="40" viewBox="0 0 139 40" fill="none" xmlns="http://www.w3.org/2000/svg">
<rect x="0.5" y="0.5" width="138" height="39" rx="5.5" fill="black"></rect>
<rect x="0.5" y="0.5" width="138" height="39" rx="5.5" stroke="#5A5A5A"></rect>
<path d="M17.8048 19.4617L8.0896 30.0059C8.09051 30.0078 8.09051 30.0106 8.09142 30.0125C8.38981 31.1574 9.41179 32 10.6254 32C11.1108 32 11.5662 31.8656 11.9567 31.6305L11.9877 31.6118L22.9229 25.1593L17.8048 19.4617Z" fill="#EA4335"></path>
<path d="M27.6331 17.6662L27.624 17.6597L22.9028 14.8612L17.5839 19.7013L22.9219 25.1582L27.6176 22.3878C28.4406 21.9324 29 21.045 29 20.0223C29 19.0052 28.4489 18.1225 27.6331 17.6662Z" fill="#FBBC04"></path>
<path d="M8.08942 9.99331C8.03102 10.2135 8 10.4449 8 10.6838V29.3163C8 29.5552 8.03102 29.7866 8.09034 30.0059L18.1386 19.7313L8.08942 9.99331Z" fill="#4285F4"></path>
<path d="M17.8766 19.9999L22.9044 14.8594L11.9819 8.38354C11.585 8.13999 11.1214 8.00003 10.626 8.00003C9.41237 8.00003 8.38856 8.8445 8.09018 9.99037C8.09018 9.9913 8.08926 9.99224 8.08926 9.99317L17.8766 19.9999Z" fill="#34A853"></path>
<path d="M89.4077 11.79C89.4077 11.0367 89.6443 10.4133 90.1177 9.91999C90.5977 9.42666 91.201 9.17999 91.9277 9.17999C92.6543 9.17999 93.2543 9.42666 93.7277 9.91999C94.2077 10.4133 94.4477 11.0367 94.4477 11.79C94.4477 12.55 94.2077 13.1733 93.7277 13.66C93.2543 14.1533 92.6543 14.4 91.9277 14.4C91.201 14.4 90.5977 14.1533 90.1177 13.66C89.6443 13.1667 89.4077 12.5433 89.4077 11.79ZM90.3277 11.79C90.3277 12.3167 90.481 12.7433 90.7877 13.07C91.0943 13.3967 91.4743 13.56 91.9277 13.56C92.381 13.56 92.761 13.3967 93.0677 13.07C93.3743 12.7433 93.5277 12.3167 93.5277 11.79C93.5277 11.27 93.3743 10.8467 93.0677 10.52C92.7543 10.1867 92.3743 10.02 91.9277 10.02C91.481 10.02 91.101 10.1867 90.7877 10.52C90.481 10.8467 90.3277 11.27 90.3277 11.79Z" fill="white"></path>
<path d="M83.8048 14.24H82.8848V7.08002H84.0048L87.4848 12.65H87.5248L87.4848 11.27V7.08002H88.4048V14.24H87.4448L83.8048 8.40002H83.7648L83.8048 9.78002V14.24Z" fill="white"></path>
<path d="M79.4065 7.08002V14.24H78.4865V7.08002H79.4065Z" fill="white"></path>
<path d="M75.3252 14.4C74.6052 14.4 74.0118 14.1533 73.5452 13.66C73.0785 13.1667 72.8452 12.5433 72.8452 11.79C72.8452 11.0433 73.0718 10.4233 73.5252 9.92999C73.9785 9.42999 74.5585 9.17999 75.2652 9.17999C75.9918 9.17999 76.5685 9.41666 76.9952 9.88999C77.4285 10.3567 77.6452 11.0133 77.6452 11.86L77.6352 11.96H73.7852C73.7985 12.44 73.9585 12.8267 74.2652 13.12C74.5718 13.4133 74.9385 13.56 75.3652 13.56C75.9518 13.56 76.4118 13.2667 76.7452 12.68L77.5652 13.08C77.3452 13.4933 77.0385 13.8167 76.6452 14.05C76.2585 14.2833 75.8185 14.4 75.3252 14.4ZM73.8552 11.2H76.6652C76.6385 10.86 76.4985 10.58 76.2452 10.36C75.9985 10.1333 75.6652 10.02 75.2452 10.02C74.8985 10.02 74.5985 10.1267 74.3452 10.34C74.0985 10.5533 73.9352 10.84 73.8552 11.2Z" fill="white"></path>
<path d="M70.6712 14.24H69.7512L67.7712 9.33997H68.7712L70.2112 13.14H70.2312L71.6912 9.33997H72.6712L70.6712 14.24Z" fill="white"></path>
<path d="M67.0939 9.34002V14.24H66.1739V9.34002H67.0939ZM67.7339 7.08002L67.0139 8.36002H66.2139L66.7339 7.08002H67.7339Z" fill="white"></path>
<path d="M60.674 9.33999H61.554V10.02H61.594C61.734 9.77999 61.9473 9.57999 62.234 9.41999C62.5273 9.25999 62.8306 9.17999 63.144 9.17999C63.744 9.17999 64.204 9.35333 64.524 9.69999C64.8506 10.04 65.014 10.5267 65.014 11.16V14.24H64.094V11.22C64.074 10.42 63.6706 10.02 62.884 10.02C62.5173 10.02 62.2106 10.17 61.964 10.47C61.7173 10.7633 61.594 11.1167 61.594 11.53V14.24H60.674V9.33999Z" fill="white"></path>
<path d="M54.8959 11.79C54.8959 11.0367 55.1326 10.4133 55.6059 9.91999C56.0859 9.42666 56.6893 9.17999 57.4159 9.17999C58.1426 9.17999 58.7426 9.42666 59.2159 9.91999C59.6959 10.4133 59.9359 11.0367 59.9359 11.79C59.9359 12.55 59.6959 13.1733 59.2159 13.66C58.7426 14.1533 58.1426 14.4 57.4159 14.4C56.6893 14.4 56.0859 14.1533 55.6059 13.66C55.1326 13.1667 54.8959 12.5433 54.8959 11.79ZM55.8159 11.79C55.8159 12.3167 55.9693 12.7433 56.2759 13.07C56.5826 13.3967 56.9626 13.56 57.4159 13.56C57.8693 13.56 58.2493 13.3967 58.5559 13.07C58.8626 12.7433 59.0159 12.3167 59.0159 11.79C59.0159 11.27 58.8626 10.8467 58.5559 10.52C58.2426 10.1867 57.8626 10.02 57.4159 10.02C56.9693 10.02 56.5893 10.1867 56.2759 10.52C55.9693 10.8467 55.8159 11.27 55.8159 11.79Z" fill="white"></path>
<path d="M51.8533 13.56C52.2933 13.56 52.6633 13.3933 52.9633 13.06C53.2633 12.7333 53.4133 12.31 53.4133 11.79C53.4133 11.2767 53.2633 10.8533 52.9633 10.52C52.6633 10.1867 52.2933 10.02 51.8533 10.02C51.4066 10.02 51.0333 10.1867 50.7333 10.52C50.44 10.8533 50.2933 11.2767 50.2933 11.79C50.2933 12.31 50.44 12.7367 50.7333 13.07C51.0333 13.3967 51.4066 13.56 51.8533 13.56ZM52.0033 14.4C51.6433 14.4 51.3133 14.3233 51.0133 14.17C50.72 14.0167 50.4933 13.8133 50.3333 13.56H50.2933L50.3333 14.24V16.4H49.4133V9.33999H50.2933V10.02H50.3333C50.4933 9.76666 50.72 9.56333 51.0133 9.40999C51.3133 9.25666 51.6433 9.17999 52.0033 9.17999C52.65 9.17999 53.1966 9.43333 53.6433 9.93999C54.1033 10.4533 54.3333 11.07 54.3333 11.79C54.3333 12.5167 54.1033 13.1333 53.6433 13.64C53.1966 14.1467 52.65 14.4 52.0033 14.4Z" fill="white"></path>
<path d="M48.7013 12.88C48.7013 13.3067 48.5147 13.6667 48.1413 13.96C47.768 14.2533 47.298 14.4 46.7313 14.4C46.238 14.4 45.8047 14.2733 45.4313 14.02C45.058 13.76 44.7913 13.42 44.6313 13L45.4513 12.65C45.5713 12.9433 45.7447 13.1733 45.9713 13.34C46.2047 13.5 46.458 13.58 46.7313 13.58C47.0247 13.58 47.268 13.5167 47.4613 13.39C47.6613 13.2633 47.7613 13.1133 47.7613 12.94C47.7613 12.6267 47.5213 12.3967 47.0413 12.25L46.2013 12.04C45.248 11.8 44.7713 11.34 44.7713 10.66C44.7713 10.2133 44.9513 9.85666 45.3113 9.58999C45.678 9.31666 46.1447 9.17999 46.7113 9.17999C47.1447 9.17999 47.5347 9.28333 47.8813 9.48999C48.2347 9.69666 48.4813 9.97333 48.6213 10.32L47.8013 10.66C47.708 10.4533 47.5547 10.2933 47.3413 10.18C47.1347 10.06 46.9013 9.99999 46.6413 9.99999C46.4013 9.99999 46.1847 10.06 45.9913 10.18C45.8047 10.3 45.7113 10.4467 45.7113 10.62C45.7113 10.9 45.9747 11.1 46.5013 11.22L47.2413 11.41C48.2147 11.65 48.7013 12.14 48.7013 12.88Z" fill="white"></path>
<path d="M43.9441 7.65C43.9441 7.83 43.8807 7.98333 43.7541 8.11C43.6274 8.23667 43.4741 8.3 43.2941 8.3C43.1141 8.3 42.9607 8.23667 42.8341 8.11C42.7074 7.98333 42.6441 7.83 42.6441 7.65C42.6441 7.47 42.7074 7.31667 42.8341 7.19C42.9607 7.06333 43.1141 7 43.2941 7C43.4741 7 43.6274 7.06333 43.7541 7.19C43.8807 7.31667 43.9441 7.47 43.9441 7.65ZM43.7541 9.34V14.24H42.8341V9.34H43.7541Z" fill="white"></path>
<path d="M36 14.24V7.08002H38.19C39.2833 7.08002 40.16 7.41002 40.82 8.07002C41.4867 8.73002 41.82 9.59335 41.82 10.66C41.82 11.7334 41.4867 12.6 40.82 13.26C40.16 13.9134 39.2833 14.24 38.19 14.24H36ZM36.92 7.96002V13.36H38.19C39.0233 13.36 39.68 13.1234 40.16 12.65C40.64 12.17 40.88 11.5067 40.88 10.66C40.88 9.82002 40.64 9.16002 40.16 8.68002C39.68 8.20002 39.0233 7.96002 38.19 7.96002H36.92Z" fill="white"></path>
<path d="M93.5181 30.8097H95.1469V19.7982H93.5181V30.8097ZM108.189 23.7646L106.322 28.5388H106.266L104.328 23.7646H102.573L105.479 30.4371L103.823 34.149H105.521L110 23.7646H108.189ZM98.9519 29.5589C98.4176 29.5589 97.6739 29.2902 97.6739 28.6234C97.6739 27.7743 98.6001 27.4484 99.4005 27.4484C100.116 27.4484 100.454 27.6043 100.889 27.8165C100.762 28.8366 99.892 29.5589 98.9519 29.5589ZM99.1483 23.5242C97.969 23.5242 96.7469 24.0483 96.2424 25.2101L97.6879 25.8188C97.9969 25.2101 98.5721 25.011 99.1762 25.011C100.019 25.011 100.875 25.5211 100.889 26.4283V26.5411C100.594 26.3711 99.9627 26.1165 99.1902 26.1165C97.632 26.1165 96.0451 26.9806 96.0451 28.5952C96.0451 30.0689 97.323 31.0184 98.7546 31.0184C99.8501 31.0184 100.454 30.5225 100.833 29.9412H100.889V30.7912H102.461V26.5693C102.461 24.6147 101.015 23.5242 99.1483 23.5242ZM89.0821 25.1053H86.7655V21.3308H89.0821C90.2998 21.3308 90.9911 22.3482 90.9911 23.2176C90.9911 24.0712 90.2998 25.1053 89.0821 25.1053ZM89.0402 19.7982H85.1375V30.8097H86.7655V26.638H89.0402C90.8453 26.638 92.6199 25.3185 92.6199 23.2176C92.6199 21.1168 90.8453 19.7982 89.0402 19.7982ZM67.7583 29.5606C66.6332 29.5606 65.6913 28.6102 65.6913 27.3048C65.6913 25.9853 66.6332 25.0198 67.7583 25.0198C68.8695 25.0198 69.7406 25.9853 69.7406 27.3048C69.7406 28.6102 68.8695 29.5606 67.7583 29.5606ZM69.6289 24.3812H69.5722C69.2064 23.9417 68.5038 23.5444 67.6178 23.5444C65.7611 23.5444 64.0599 25.1899 64.0599 27.3048C64.0599 29.4047 65.7611 31.0369 67.6178 31.0369C68.5038 31.0369 69.2064 30.6397 69.5722 30.1852H69.6289V30.7251C69.6289 32.1583 68.8695 32.9246 67.6457 32.9246C66.6471 32.9246 66.0282 32.2005 65.7751 31.5901L64.3549 32.1864C64.7626 33.18 65.8458 34.4 67.6457 34.4C69.5582 34.4 71.1757 33.2646 71.1757 30.4979V23.7708H69.6289V24.3812ZM72.3008 30.8097H73.9323V19.7973H72.3008V30.8097ZM76.3362 27.1771C76.2943 25.7298 77.4474 24.9917 78.2766 24.9917C78.9243 24.9917 79.4725 25.3176 79.6549 25.7862L76.3362 27.1771ZM81.3989 25.928C81.0899 25.0912 80.1472 23.5444 78.2208 23.5444C76.3083 23.5444 74.7196 25.0621 74.7196 27.2907C74.7196 29.3906 76.2943 31.0369 78.4032 31.0369C80.1053 31.0369 81.0899 29.987 81.4976 29.3765L80.2319 28.5248C79.8103 29.1493 79.2333 29.5606 78.4032 29.5606C77.5739 29.5606 76.983 29.1775 76.6033 28.4261L81.5674 26.3535L81.3989 25.928ZM41.8501 24.6939V26.283H45.6184C45.5058 27.1771 45.2107 27.8298 44.7612 28.2834C44.2121 28.8375 43.3541 29.4479 41.8501 29.4479C39.5291 29.4479 37.7152 27.5602 37.7152 25.2189C37.7152 22.8767 39.5291 20.99 41.8501 20.99C43.1018 20.99 44.0157 21.4868 44.6905 22.1254L45.8017 21.0041C44.8589 20.0959 43.6081 19.4 41.8501 19.4C38.6719 19.4 36 22.0117 36 25.2189C36 28.4261 38.6719 31.0369 41.8501 31.0369C43.5653 31.0369 44.8589 30.4688 45.8715 29.4047C46.9129 28.3547 47.2358 26.8793 47.2358 25.6867C47.2358 25.3176 47.2079 24.9776 47.1512 24.6939H41.8501ZM51.5208 29.5606C50.3957 29.5606 49.425 28.6243 49.425 27.2907C49.425 25.9421 50.3957 25.0198 51.5208 25.0198C52.6451 25.0198 53.6158 25.9421 53.6158 27.2907C53.6158 28.6243 52.6451 29.5606 51.5208 29.5606ZM51.5208 23.5444C49.4669 23.5444 47.7936 25.1194 47.7936 27.2907C47.7936 29.4479 49.4669 31.0369 51.5208 31.0369C53.5739 31.0369 55.2472 29.4479 55.2472 27.2907C55.2472 25.1194 53.5739 23.5444 51.5208 23.5444ZM59.65 29.5606C58.5249 29.5606 57.5542 28.6243 57.5542 27.2907C57.5542 25.9421 58.5249 25.0198 59.65 25.0198C60.7752 25.0198 61.745 25.9421 61.745 27.2907C61.745 28.6243 60.7752 29.5606 59.65 29.5606ZM59.65 23.5444C57.597 23.5444 55.9237 25.1194 55.9237 27.2907C55.9237 29.4479 57.597 31.0369 59.65 31.0369C61.7031 31.0369 63.3764 29.4479 63.3764 27.2907C63.3764 25.1194 61.7031 23.5444 59.65 23.5444Z" fill="white"></path>
</svg>