<svg width="90" height="90" viewBox="0 0 90 90" fill="none" xmlns="http://www.w3.org/2000/svg">
<circle cx="45" cy="45" r="45" fill="white"></circle>
<path d="M81.764 56.8422C81.393 56.8422 81.015 56.7897 80.6423 56.6899L20.822 40.5584C18.4945 39.9302 16.6728 37.4907 16.6728 35.0039V20.2777C16.6728 17.9677 18.295 16.2264 20.4528 16.2264C20.8238 16.2264 21.2018 16.2789 21.5745 16.3787L81.3965 32.5102C83.724 33.1384 85.5458 35.5779 85.5458 38.0647V52.7892C85.5458 55.0992 83.92 56.8404 81.7658 56.8404V56.8439L81.764 56.8422Z" fill="black"></path>
<path d="M20.4493 17.6912C20.689 17.6912 20.9393 17.7245 21.1983 17.7945L81.0203 33.926C82.7143 34.3827 84.0898 36.2377 84.0898 38.0647V52.7892C84.0898 54.3397 83.1027 55.3757 81.7675 55.3757C81.5144 55.3743 81.2626 55.3396 81.0185 55.2725L21.1983 39.141C19.5043 38.6842 18.1288 36.8292 18.1288 35.0022V20.2777C18.1288 18.7272 19.1158 17.6912 20.451 17.6912H20.4493ZM20.4493 14.7617C17.4638 14.7617 15.2133 17.1347 15.2133 20.2777V35.0022C15.2133 38.1732 17.4603 41.1692 20.4405 41.9707L80.2625 58.1022C80.7613 58.237 81.267 58.3035 81.7623 58.3035C84.7478 58.3035 86.9965 55.9305 86.9965 52.7875V38.063C86.9965 34.892 84.7495 31.8977 81.7693 31.0945L21.949 14.9647C21.452 14.8282 20.9445 14.7617 20.4493 14.7617Z" fill="white"></path>
<path d="M69.5508 72.916C69.1798 72.916 68.8018 72.8635 68.4255 72.7637L8.6035 56.6287C6.276 56.0005 4.45425 53.561 4.45425 51.0742V36.3497C4.45425 34.0397 6.0765 32.2985 8.23425 32.2985C8.60525 32.2985 8.98325 32.351 9.356 32.4507L69.178 48.584C71.5055 49.2122 73.3273 51.6517 73.3273 54.1385V68.863C73.3273 71.173 71.705 72.916 69.5508 72.916Z" fill="#DA0000"></path>
<path d="M8.236 33.7649C8.48911 33.7664 8.74094 33.8011 8.985 33.8682L68.807 49.9997C70.501 50.4564 71.8765 52.3114 71.8765 54.1384V68.863C71.8765 70.4135 70.8895 71.4494 69.5543 71.4494C69.3145 71.4494 69.0643 71.4162 68.8053 71.3462L8.9815 55.2147C7.2875 54.7579 5.912 52.9029 5.912 51.0759V36.3514C5.912 34.801 6.899 33.7649 8.23425 33.7649M8.23775 30.8354C5.2505 30.8354 3 33.2084 3 36.3514V51.0759C3 54.2469 5.247 57.2429 8.22725 58.0444L68.0493 74.176C68.5379 74.3099 69.0423 74.3782 69.549 74.3789C72.5345 74.3789 74.785 72.006 74.785 68.863V54.1384C74.785 50.9674 72.538 47.9732 69.5578 47.1699L9.734 31.0384C9.23525 30.9037 8.7295 30.8372 8.23425 30.8372L8.23775 30.8354Z" fill="white"></path>
<path d="M20.4493 73.6353C18.295 73.6353 16.6693 71.894 16.6693 69.584V54.8595C16.6693 52.3728 18.491 49.9315 20.8185 49.305L80.6405 33.1718C81.0168 33.0703 81.3948 33.0195 81.7623 33.0195C83.9165 33.0195 85.5423 34.7608 85.5423 37.0708V51.7953C85.5423 54.282 83.7205 56.7233 81.393 57.3498L21.571 73.4813C21.1948 73.5828 20.8168 73.6353 20.4493 73.6353Z" fill="black"></path>
<path d="M81.7657 34.4842C83.0992 34.4842 84.088 35.5202 84.088 37.0707V51.7952C84.088 53.6257 82.7125 55.4772 81.0185 55.9339L21.1965 72.0654C20.9524 72.1325 20.7006 72.1672 20.4475 72.1687C19.114 72.1687 18.1252 71.1327 18.1252 69.5822V54.8577C18.1252 53.0272 19.5007 51.1757 21.1947 50.7189L81.0167 34.5874C81.2757 34.5174 81.526 34.4842 81.7657 34.4842ZM81.7657 31.5547C81.2591 31.5567 80.7549 31.6249 80.266 31.7577L20.444 47.8909C17.4655 48.6942 15.2167 51.6902 15.2167 54.8594V69.5839C15.2167 72.7287 17.4672 75.0999 20.4527 75.0999C20.9515 75.0999 21.4537 75.0299 21.9525 74.8969L81.7745 58.7654C84.753 57.9639 87 54.9679 87 51.7987V37.0742C87 33.9294 84.7495 31.5582 81.764 31.5582L81.7657 31.5547Z" fill="white"></path>
<path d="M8.23599 55.5805C6.08174 55.5805 4.45599 53.8392 4.45599 51.5292V36.8047C4.45599 34.318 6.27774 31.8767 8.60524 31.2502L68.4272 15.117C68.8035 15.0137 69.1815 14.9647 69.549 14.9647C71.7032 14.9647 73.329 16.706 73.329 19.016V33.7405C73.329 36.2272 71.5072 38.6685 69.1797 39.295L9.35774 55.4282C8.98149 55.5297 8.60349 55.5805 8.23599 55.5805Z" fill="#DA0000"></path>
<path d="M69.5473 16.4295C70.8825 16.4295 71.8695 17.4655 71.8695 19.016V33.7405C71.8695 35.571 70.494 37.4225 68.8 37.8792L8.9815 54.0125C8.73744 54.0796 8.48561 54.1143 8.2325 54.1157C6.899 54.1157 5.91025 53.0798 5.91025 51.5293V36.8047C5.91025 34.9742 7.28575 33.1227 8.97975 32.666L68.8018 16.5327C69.0608 16.4627 69.311 16.4295 69.5508 16.4295M69.5508 13.5C69.052 13.5 68.5498 13.57 68.051 13.7012L8.22725 29.8363C5.247 30.6395 3 33.6355 3 36.8047V51.5293C3 54.674 5.2505 57.0452 8.236 57.0452C8.74263 57.0433 9.24682 56.975 9.73575 56.8423L69.5578 40.7107C72.538 39.9075 74.785 36.9115 74.785 33.7422V19.016C74.7833 15.8695 72.5328 13.5 69.5473 13.5H69.5508Z" fill="white"></path>
<path d="M81.0168 55.276L21.1947 39.1445C19.5007 38.6877 18.1252 36.8327 18.1252 35.0057V20.2777C18.1252 18.4472 19.5007 17.3377 21.1947 17.7945L81.0168 33.926C82.7108 34.3827 84.0863 36.2377 84.0863 38.0647V52.7892C84.0863 54.6197 82.7108 55.7292 81.0168 55.2725V55.276Z" fill="black"></path>
<path d="M68.8017 71.3481L8.98149 55.2148C7.28749 54.7581 5.91199 52.9031 5.91199 51.0761V36.3516C5.91199 34.5211 7.28749 33.4116 8.98149 33.8683L68.8035 49.9998C70.4975 50.4566 71.873 52.3116 71.873 54.1386V68.8631C71.873 70.6936 70.4975 71.8031 68.8035 71.3463V71.3498L68.8017 71.3481Z" fill="#DA0000"></path>
<path d="M81.0168 55.934L21.1947 72.0655C19.5007 72.5223 18.1252 71.4128 18.1252 69.5823V54.8578C18.1252 53.0273 19.5007 51.1758 21.1947 50.719L81.0168 34.5875C82.7108 34.1308 84.0863 35.2403 84.0863 37.0708V51.7953C84.0863 53.6258 82.7108 55.4773 81.0168 55.934Z" fill="black"></path>
<path d="M68.8017 37.8792L8.98149 54.0125C7.28749 54.4692 5.91199 53.3597 5.91199 51.5292V36.8047C5.91199 34.9742 7.28749 33.1227 8.98149 32.666L68.8035 16.5327C70.4975 16.076 71.873 17.1855 71.873 19.016V33.7405C71.873 35.571 70.4957 37.4225 68.8017 37.8792Z" fill="#DA0000"></path>
<path d="M24.2678 60.1515C24.2678 56.9508 26.3398 54.611 29.4145 53.7798C32.0693 53.0658 33.9295 53.9688 34.1413 55.9288L31.1313 56.7408C30.9353 55.9708 30.3053 55.5998 29.4145 55.8413C28.1353 56.1878 27.3268 57.474 27.3268 59.2573C27.3268 61.0405 28.1353 61.9068 29.544 61.527C30.3525 61.3083 31.3728 60.6293 31.5198 59.3815L29.369 59.9625V58.1828L34.192 56.8808V62.003L31.5215 62.7223L31.5372 60.491C31.182 61.9785 30.2913 63.221 28.431 63.7215C25.8918 64.4058 24.2713 62.962 24.2713 60.1533L24.2678 60.1515ZM35.8387 52.2433L40.4027 51.013C43.0085 50.3095 44.384 51.013 44.384 52.8488C44.384 54.1998 43.6875 55.318 42.2788 56.116C43.362 55.8675 44.2037 56.459 44.237 57.495L44.3035 59.273L41.3425 60.071L41.2638 58.2405C41.2148 57.3078 40.7633 57.0383 39.9373 57.264L38.8033 57.5685V60.7553L35.8423 61.5533V52.2415L35.837 52.245L35.8387 52.2433ZM40.065 55.4475C40.94 55.213 41.4073 54.5008 41.4073 53.792C41.4073 53.0833 40.954 52.7175 40.0317 52.9678L38.8015 53.3003V55.7923L40.065 55.451V55.4475ZM47.7177 49.0408L52.7823 47.6758L55.437 56.27L52.2485 57.131L51.7952 55.3618L48.6558 56.2088L48.1693 58.2335L45.0473 59.0753L47.7177 49.0443V49.0408ZM50.194 45.3658L53.0902 44.5853L51.0847 47.4238L48.7555 48.052L50.1975 45.3658H50.194ZM51.4067 53.638L50.2272 48.976L49.0477 54.275L51.4103 53.638H51.4067ZM57.558 48.4598L54.7405 49.2175V47.1438L63.4485 44.7953V46.869L60.631 47.6285V54.8665L57.5545 55.6943V48.4563L57.558 48.4598ZM64.4862 44.5188L67.5628 43.691V53.0028L64.4862 53.8305V44.5188ZM68.9015 49.4363L71.894 48.6278C71.957 49.669 72.6395 50.0698 73.6072 49.8073C74.3685 49.6025 74.9023 49.095 74.9023 48.4843C74.9023 47.9138 74.4017 47.7563 72.622 47.8333C70.4205 47.9243 69.1745 47.5095 69.1745 45.9363C69.1745 44.1285 70.7128 42.627 73.3343 41.9183C75.94 41.2148 77.6568 41.948 77.7355 43.9588L74.8217 44.7445C74.7885 43.8608 74.2547 43.4495 73.35 43.6945C72.6377 43.8853 72.1845 44.342 72.1845 44.8583C72.1845 45.4568 72.7672 45.4953 74.498 45.4183C76.7957 45.3133 77.9788 45.7753 77.9788 47.3625C77.9788 49.27 76.2953 50.8783 73.5775 51.6098C70.7933 52.3605 68.9173 51.615 68.9015 49.4328V49.4363ZM11.715 37.8268L16.1495 36.6315L18.4735 44.1565L15.6805 44.909L15.285 43.3585L12.5375 44.1005L12.114 45.8733L9.37875 46.61L11.715 37.8268ZM14.9455 41.8518L13.9113 37.7673L12.877 42.4083L14.9455 41.8518ZM19.1105 35.83L22.9203 34.8028C25.372 34.1413 26.6618 34.8308 26.6618 36.4618C26.6618 38.2888 25.1743 39.799 22.9378 40.401L21.746 40.723V43.2693L19.1105 43.9815V35.83ZM22.7663 38.7928C23.545 38.5828 24.042 37.9615 24.042 37.2423C24.042 36.572 23.5608 36.2763 22.7663 36.4898L21.746 36.7645V39.0675L22.7663 38.7928ZM26.8158 37.8093C26.8158 35.2875 28.7548 33.058 31.4078 32.344C34.0975 31.6178 35.9998 32.8008 35.9998 35.3348C35.9998 37.8688 34.0748 40.1298 31.4078 40.8508C28.7303 41.5735 26.8158 40.4168 26.8158 37.8093ZM31.4078 39.0448C32.484 38.7543 33.2488 37.622 33.2488 36.0733C33.2488 34.5245 32.484 33.856 31.4078 34.1465C30.3595 34.4283 29.5668 35.5448 29.5668 37.0673C29.5668 38.5898 30.3595 39.3265 31.4078 39.0448Z" fill="white"></path>
<path d="M36.3375 36.5335L38.959 35.8282C39.0167 36.7382 39.6117 37.09 40.4605 36.8607C41.1255 36.6805 41.5945 36.2377 41.5945 35.704C41.5945 35.2052 41.1535 35.067 39.5977 35.1335C37.6727 35.214 36.579 34.8517 36.579 33.4745C36.579 31.8907 37.9247 30.5782 40.2207 29.9587C42.501 29.3445 44.0042 29.9867 44.0742 31.7472L41.5245 32.4332C41.4965 31.6615 41.0292 31.301 40.2347 31.5145C39.61 31.6825 39.2145 32.0815 39.2145 32.533C39.2145 33.0562 39.7237 33.0895 41.2392 33.023C43.25 32.932 44.2842 33.3362 44.2842 34.7222C44.2842 36.3917 42.809 37.8005 40.4307 38.4427C37.993 39.099 36.3515 38.4462 36.3375 36.5387V36.5335Z" fill="white"></path>
<path d="M46.848 30.1652L44.3823 30.8302V29.0137L52.0053 26.9592V28.7757L49.5413 29.4407V35.7757L46.8498 36.502V30.167H46.8463L46.848 30.1652ZM53.449 26.5725L57.8835 25.3755L60.2075 32.9005L57.4145 33.653L57.019 32.1025L54.2698 32.8445L53.8428 34.6172L51.1093 35.354L53.4473 26.5707L53.449 26.5725ZM56.6795 30.5975L55.6453 26.513L54.611 31.154L56.6795 30.5975ZM60.2495 30.0847L62.871 29.3795C62.9288 30.2912 63.5238 30.6412 64.3725 30.412C65.0375 30.2317 65.5065 29.789 65.5065 29.2552C65.5065 28.7565 65.0655 28.6182 63.5098 28.6847C61.5848 28.7652 60.4928 28.403 60.4928 27.0257C60.4928 25.442 61.8385 24.1295 64.1345 23.51C66.4148 22.8957 67.918 23.538 67.988 25.2985L65.4383 25.9845C65.4103 25.2127 64.943 24.8522 64.1485 25.0657C63.5238 25.2355 63.1283 25.6327 63.1283 26.0842C63.1283 26.6075 63.6375 26.6407 65.153 26.5742C67.1638 26.4832 68.198 26.8875 68.198 28.2735C68.198 29.943 66.7228 31.3517 64.3445 31.994C61.9068 32.6502 60.2653 31.9975 60.2513 30.09L60.2495 30.0847Z" fill="white"></path>
</svg>