<svg width="90" height="90" viewBox="0 0 90 90" fill="none" xmlns="http://www.w3.org/2000/svg">
<circle cx="45" cy="45" r="45" fill="white"></circle>
<path d="M81.764 56.8422C81.393 56.8422 81.015 56.7897 80.6423 56.69L20.822 40.5585C18.4945 39.9302 16.6728 37.4907 16.6728 35.004V20.2778C16.6728 17.9678 18.295 16.2265 20.4528 16.2265C20.8238 16.2265 21.2018 16.279 21.5745 16.3788L81.3965 32.5103C83.724 33.1385 85.5458 35.578 85.5458 38.0648V52.7892C85.5458 55.0992 83.92 56.8405 81.7658 56.8405V56.844L81.764 56.8422Z" fill="black"></path>
<path d="M20.4493 17.6913C20.689 17.6913 20.9393 17.7245 21.1983 17.7945L81.0203 33.926C82.7143 34.3828 84.0898 36.2378 84.0898 38.0648V52.7893C84.0898 54.3398 83.1027 55.3758 81.7675 55.3758C81.5144 55.3743 81.2626 55.3396 81.0185 55.2725L21.1983 39.141C19.5043 38.6843 18.1288 36.8293 18.1288 35.0023V20.2778C18.1288 18.7273 19.1158 17.6913 20.451 17.6913H20.4493ZM20.4493 14.7618C17.4638 14.7618 15.2133 17.1348 15.2133 20.2778V35.0023C15.2133 38.1733 17.4603 41.1693 20.4405 41.9708L80.2625 58.1023C80.7613 58.237 81.267 58.3035 81.7623 58.3035C84.7478 58.3035 86.9965 55.9305 86.9965 52.7875V38.063C86.9965 34.892 84.7495 31.8978 81.7693 31.0945L21.949 14.9648C21.452 14.8283 20.9445 14.7618 20.4493 14.7618Z" fill="white"></path>
<path d="M69.5508 72.916C69.1798 72.916 68.8018 72.8635 68.4255 72.7638L8.6035 56.6288C6.276 56.0005 4.45425 53.561 4.45425 51.0743V36.3498C4.45425 34.0398 6.0765 32.2985 8.23425 32.2985C8.60525 32.2985 8.98325 32.351 9.356 32.4508L69.178 48.584C71.5055 49.2123 73.3273 51.6518 73.3273 54.1385V68.863C73.3273 71.173 71.705 72.916 69.5508 72.916Z" fill="#DA0000"></path>
<path d="M8.236 33.765C8.48911 33.7664 8.74094 33.8012 8.985 33.8683L68.807 49.9998C70.501 50.4565 71.8765 52.3115 71.8765 54.1385V68.863C71.8765 70.4135 70.8895 71.4495 69.5543 71.4495C69.3145 71.4495 69.0643 71.4163 68.8053 71.3463L8.9815 55.2148C7.2875 54.758 5.912 52.903 5.912 51.076V36.3515C5.912 34.801 6.899 33.765 8.23425 33.765M8.23775 30.8355C5.2505 30.8355 3 33.2085 3 36.3515V51.076C3 54.247 5.247 57.243 8.22725 58.0445L68.0493 74.176C68.5379 74.31 69.0423 74.3782 69.549 74.379C72.5345 74.379 74.785 72.006 74.785 68.863V54.1385C74.785 50.9675 72.538 47.9733 69.5578 47.17L9.734 31.0385C9.23525 30.9038 8.7295 30.8373 8.23425 30.8373L8.23775 30.8355Z" fill="white"></path>
<path d="M20.4493 73.6352C18.295 73.6352 16.6693 71.894 16.6693 69.584V54.8595C16.6693 52.3727 18.491 49.9315 20.8185 49.305L80.6405 33.1717C81.0168 33.0702 81.3948 33.0195 81.7623 33.0195C83.9165 33.0195 85.5423 34.7607 85.5423 37.0707V51.7952C85.5423 54.282 83.7205 56.7232 81.393 57.3497L21.571 73.4812C21.1948 73.5827 20.8168 73.6352 20.4493 73.6352Z" fill="black"></path>
<path d="M81.7657 34.4842C83.0992 34.4842 84.088 35.5202 84.088 37.0707V51.7952C84.088 53.6257 82.7125 55.4772 81.0185 55.934L21.1965 72.0655C20.9524 72.1326 20.7006 72.1673 20.4475 72.1687C19.114 72.1687 18.1252 71.1327 18.1252 69.5822V54.8577C18.1252 53.0272 19.5007 51.1757 21.1947 50.719L81.0167 34.5875C81.2757 34.5175 81.526 34.4842 81.7657 34.4842ZM81.7657 31.5547C81.2591 31.5567 80.7549 31.625 80.266 31.7578L20.444 47.891C17.4655 48.6942 15.2167 51.6902 15.2167 54.8595V69.584C15.2167 72.7287 17.4672 75.1 20.4527 75.1C20.9515 75.1 21.4537 75.03 21.9525 74.897L81.7745 58.7655C84.753 57.964 87 54.968 87 51.7987V37.0743C87 33.9295 84.7495 31.5582 81.764 31.5582L81.7657 31.5547Z" fill="white"></path>
<path d="M8.23599 55.5805C6.08174 55.5805 4.45599 53.8392 4.45599 51.5292V36.8047C4.45599 34.318 6.27774 31.8767 8.60524 31.2502L68.4272 15.117C68.8035 15.0137 69.1815 14.9647 69.549 14.9647C71.7032 14.9647 73.329 16.706 73.329 19.016V33.7405C73.329 36.2272 71.5072 38.6685 69.1797 39.295L9.35774 55.4282C8.98149 55.5297 8.60349 55.5805 8.23599 55.5805Z" fill="#DA0000"></path>
<path d="M69.5473 16.4295C70.8825 16.4295 71.8695 17.4655 71.8695 19.016V33.7405C71.8695 35.571 70.494 37.4225 68.8 37.8792L8.9815 54.0125C8.73744 54.0796 8.48561 54.1143 8.2325 54.1157C6.899 54.1157 5.91025 53.0798 5.91025 51.5293V36.8047C5.91025 34.9742 7.28575 33.1227 8.97975 32.666L68.8018 16.5327C69.0608 16.4627 69.311 16.4295 69.5508 16.4295M69.5508 13.5C69.052 13.5 68.5498 13.57 68.051 13.7012L8.22725 29.8363C5.247 30.6395 3 33.6355 3 36.8047V51.5293C3 54.674 5.2505 57.0452 8.236 57.0452C8.74263 57.0433 9.24682 56.975 9.73575 56.8423L69.5578 40.7107C72.538 39.9075 74.785 36.9115 74.785 33.7422V19.016C74.7833 15.8695 72.5328 13.5 69.5473 13.5H69.5508Z" fill="white"></path>
<path d="M81.0168 55.276L21.1947 39.1445C19.5007 38.6878 18.1252 36.8328 18.1252 35.0058V20.2778C18.1252 18.4473 19.5007 17.3378 21.1947 17.7945L81.0168 33.926C82.7108 34.3828 84.0863 36.2378 84.0863 38.0648V52.7893C84.0863 54.6198 82.7108 55.7293 81.0168 55.2725V55.276Z" fill="black"></path>
<path d="M68.8017 71.348L8.98149 55.2147C7.28749 54.758 5.91199 52.903 5.91199 51.076V36.3515C5.91199 34.521 7.28749 33.4115 8.98149 33.8683L68.8035 49.9998C70.4975 50.4565 71.873 52.3115 71.873 54.1385V68.863C71.873 70.6935 70.4975 71.803 68.8035 71.3463V71.3497L68.8017 71.348Z" fill="#DA0000"></path>
<path d="M81.0168 55.934L21.1947 72.0655C19.5007 72.5222 18.1252 71.4127 18.1252 69.5822V54.8577C18.1252 53.0272 19.5007 51.1757 21.1947 50.719L81.0168 34.5875C82.7108 34.1307 84.0863 35.2402 84.0863 37.0707V51.7952C84.0863 53.6257 82.7108 55.4772 81.0168 55.934Z" fill="black"></path>
<path d="M68.8017 37.8792L8.98149 54.0125C7.28749 54.4692 5.91199 53.3597 5.91199 51.5292V36.8047C5.91199 34.9742 7.28749 33.1227 8.98149 32.666L68.8035 16.5327C70.4975 16.076 71.873 17.1855 71.873 19.016V33.7405C71.873 35.571 70.4975 37.4225 68.8035 37.8792H68.8017Z" fill="#DA0000"></path>
<path d="M24.2678 60.1515C24.2678 56.9507 26.3398 54.611 29.4145 53.7797C32.0693 53.0657 33.9295 53.9687 34.1413 55.9287L31.1313 56.7407C30.9353 55.9707 30.3053 55.5997 29.4145 55.8412C28.1353 56.1877 27.3268 57.474 27.3268 59.2572C27.3268 61.0405 28.1353 61.9067 29.544 61.527C30.3525 61.3082 31.3728 60.6292 31.5198 59.3815L29.369 59.9625V58.1827L34.192 56.8807V62.003L31.5215 62.7222L31.5373 60.491C31.182 61.9785 30.2913 63.221 28.431 63.7215C25.8918 64.4057 24.2713 62.962 24.2713 60.1532L24.2678 60.1515ZM35.8388 52.2432L40.4028 51.013C43.0085 50.3095 44.384 51.013 44.384 52.8487C44.384 54.1997 43.6875 55.318 42.2788 56.116C43.362 55.8675 44.2038 56.459 44.237 57.495L44.3035 59.273L41.3425 60.071L41.2638 58.2405C41.2148 57.3077 40.7633 57.0382 39.9373 57.264L38.8033 57.5685V60.7552L35.8423 61.5532V52.2415L35.837 52.245L35.8388 52.2432ZM40.065 55.4475C40.94 55.213 41.4073 54.5007 41.4073 53.792C41.4073 53.0832 40.954 52.7175 40.0318 52.9677L38.8015 53.3002V55.7922L40.065 55.451V55.4475ZM47.7178 49.0407L52.7823 47.6757L55.437 56.27L52.2485 57.131L51.7953 55.3617L48.6558 56.2087L48.1693 58.2335L45.0473 59.0752L47.7178 49.0442V49.0407ZM50.194 45.3657L53.0903 44.5852L51.0848 47.4237L48.7555 48.052L50.1975 45.3657H50.194ZM51.4068 53.638L50.2273 48.976L49.0478 54.275L51.4103 53.638H51.4068ZM57.558 48.4597L54.7405 49.2175V47.1437L63.4485 44.7952V46.869L60.631 47.6285V54.8665L57.5545 55.6942V48.4562L57.558 48.4597Z" fill="white"></path>
<path d="M64.4863 44.5187L67.5628 43.691V53.0027L64.4863 53.8305V44.5187Z" fill="white"></path>
<path d="M68.9015 49.4363L71.894 48.6278C71.957 49.669 72.6395 50.0698 73.6072 49.8073C74.3685 49.6025 74.9023 49.095 74.9023 48.4843C74.9023 47.9138 74.4017 47.7563 72.622 47.8333C70.4205 47.9243 69.1745 47.5095 69.1745 45.9363C69.1745 44.1285 70.7128 42.627 73.3343 41.9183C75.94 41.2148 77.6568 41.948 77.7355 43.9588L74.8217 44.7445C74.7885 43.8608 74.2547 43.4495 73.35 43.6945C72.6377 43.8853 72.1845 44.342 72.1845 44.8583C72.1845 45.4568 72.7672 45.4953 74.498 45.4183C76.7957 45.3133 77.9788 45.7753 77.9788 47.3625C77.9788 49.27 76.2953 50.8783 73.5775 51.6098C70.7933 52.3605 68.9173 51.615 68.9015 49.4328V49.4363ZM11.715 37.8268L16.1495 36.6315L18.4735 44.1565L15.6805 44.909L15.285 43.3585L12.5375 44.1005L12.114 45.8733L9.37875 46.61L11.715 37.8268ZM14.9455 41.8518L13.9113 37.7673L12.877 42.4083L14.9455 41.8518ZM19.1105 35.83L22.9203 34.8028C25.372 34.1413 26.6618 34.8308 26.6618 36.4618C26.6618 38.2888 25.1743 39.799 22.9378 40.401L21.746 40.723V43.2693L19.1105 43.9815V35.83ZM22.7663 38.7928C23.545 38.5828 24.042 37.9615 24.042 37.2423C24.042 36.572 23.5608 36.2763 22.7663 36.4898L21.746 36.7645V39.0675L22.7663 38.7928ZM26.8158 37.8093C26.8158 35.2875 28.7548 33.058 31.4078 32.344C34.0975 31.6178 35.9998 32.8008 35.9998 35.3348C35.9998 37.8688 34.0748 40.1298 31.4078 40.8508C28.7303 41.5735 26.8158 40.4168 26.8158 37.8093ZM31.4078 39.0448C32.484 38.7543 33.2488 37.622 33.2488 36.0733C33.2488 34.5245 32.484 33.856 31.4078 34.1465C30.3595 34.4283 29.5668 35.5448 29.5668 37.0673C29.5668 38.5898 30.3595 39.3265 31.4078 39.0448Z" fill="white"></path>
<path d="M36.3375 36.5335L38.959 35.8282C39.0167 36.7382 39.6117 37.09 40.4605 36.8607C41.1255 36.6805 41.5945 36.2377 41.5945 35.704C41.5945 35.2052 41.1535 35.067 39.5977 35.1335C37.6727 35.214 36.579 34.8517 36.579 33.4745C36.579 31.8907 37.9247 30.5782 40.2207 29.9587C42.501 29.3445 44.0042 29.9867 44.0742 31.7472L41.5245 32.4332C41.4965 31.6615 41.0292 31.301 40.2347 31.5145C39.61 31.6825 39.2145 32.0815 39.2145 32.533C39.2145 33.0562 39.7237 33.0895 41.2392 33.023C43.25 32.932 44.2842 33.3362 44.2842 34.7222C44.2842 36.3917 42.809 37.8005 40.4307 38.4427C37.993 39.099 36.3515 38.4462 36.3375 36.5387V36.5335Z" fill="white"></path>
<path d="M46.848 30.1652L44.3823 30.8302V29.0137L52.0053 26.9592V28.7757L49.5413 29.4407V35.7757L46.8498 36.502V30.167H46.8463L46.848 30.1652ZM53.449 26.5725L57.8835 25.3755L60.2075 32.9005L57.4145 33.653L57.019 32.1025L54.2698 32.8445L53.8428 34.6172L51.1093 35.354L53.4473 26.5707L53.449 26.5725ZM56.6795 30.5975L55.6453 26.513L54.611 31.154L56.6795 30.5975ZM60.2495 30.0847L62.871 29.3795C62.9288 30.2912 63.5238 30.6412 64.3725 30.412C65.0375 30.2317 65.5065 29.789 65.5065 29.2552C65.5065 28.7565 65.0655 28.6182 63.5098 28.6847C61.5848 28.7652 60.4928 28.403 60.4928 27.0257C60.4928 25.442 61.8385 24.1295 64.1345 23.51C66.4148 22.8957 67.918 23.538 67.988 25.2985L65.4383 25.9845C65.4103 25.2127 64.943 24.8522 64.1485 25.0657C63.5238 25.2355 63.1283 25.6327 63.1283 26.0842C63.1283 26.6075 63.6375 26.6407 65.153 26.5742C67.1638 26.4832 68.198 26.8875 68.198 28.2735C68.198 29.943 66.7228 31.3517 64.3445 31.994C61.9068 32.6502 60.2653 31.9975 60.2513 30.09L60.2495 30.0847Z" fill="white"></path>
<path d="M81.0168 55.276L21.1965 39.1445C19.5025 38.6878 18.127 36.8328 18.127 35.0058V20.2778C18.127 18.4473 19.5025 17.3378 21.1965 17.7945L81.0185 33.926C82.7125 34.3828 84.088 36.2378 84.088 38.0648V52.7893C84.088 54.6198 82.7125 55.7293 81.0185 55.2725V55.276H81.0168Z" fill="black"></path>
<path d="M20.4493 17.6913C20.689 17.6913 20.9393 17.7245 21.1983 17.7945L81.0203 33.926C82.7143 34.3828 84.0898 36.2378 84.0898 38.0648V52.7893C84.0898 54.3398 83.1028 55.3758 81.7675 55.3758C81.5278 55.3758 81.2775 55.3425 81.0185 55.2743L21.1983 39.1428C19.5043 38.686 18.1288 36.831 18.1288 35.004V20.2778C18.1288 18.7273 19.1158 17.6913 20.451 17.6913H20.4493ZM20.4493 14.7618C17.4638 14.7618 15.2133 17.1348 15.2133 20.2778V35.0023C15.2133 38.1733 17.4603 41.1693 20.4405 41.9708L80.2625 58.1023C80.7512 58.2362 81.2555 58.3045 81.7623 58.3053C84.7478 58.3053 86.9983 55.9323 86.9983 52.7893V38.0648C86.9983 34.8938 84.7513 31.8995 81.771 31.0963L21.949 14.9648C21.4503 14.8283 20.9445 14.7618 20.4493 14.7618Z" fill="white"></path>
<path d="M68.8017 71.348L8.98149 55.2147C7.28749 54.758 5.91199 52.903 5.91199 51.076V36.3515C5.91199 34.521 7.28749 33.4115 8.98149 33.8683L68.8035 49.9998C70.4975 50.4565 71.873 52.3115 71.873 54.1385V68.863C71.873 70.6935 70.4975 71.803 68.8035 71.3463V71.3497L68.8017 71.348Z" fill="#DA0000"></path>
<path d="M8.236 33.765C8.48911 33.7664 8.74094 33.8012 8.985 33.8683L68.8052 49.9998C70.4992 50.4565 71.8747 52.3115 71.8747 54.1385V68.863C71.8747 70.4135 70.8877 71.4495 69.5525 71.4495C69.2994 71.4481 69.0476 71.4134 68.8035 71.3463L8.9815 55.2148C7.2875 54.758 5.912 52.903 5.912 51.076V36.3515C5.912 34.801 6.899 33.765 8.23425 33.765M8.23775 30.8355C5.2505 30.8355 3 33.2085 3 36.3515V51.076C3 54.247 5.247 57.243 8.22725 58.0445L68.0475 74.176C68.5462 74.3125 69.052 74.379 69.5472 74.379C72.5327 74.379 74.7832 72.006 74.7832 68.863V54.1385C74.7832 50.9675 72.5362 47.9733 69.556 47.17L9.734 31.0385C9.23525 30.9038 8.7295 30.8373 8.23425 30.8373L8.23775 30.8355Z" fill="white"></path>
<path d="M81.0168 55.934L21.1965 72.0655C19.5025 72.5222 18.127 71.4127 18.127 69.5822V54.8577C18.127 53.0272 19.5025 51.1757 21.1965 50.719L81.0185 34.5875C82.7125 34.1307 84.088 35.2402 84.088 37.0707V51.7952C84.088 53.6257 82.7125 55.4772 81.0185 55.934H81.0168Z" fill="black"></path>
<path d="M81.764 34.4842C83.0975 34.4842 84.0862 35.5202 84.0862 37.0707V51.7952C84.0862 53.6257 82.7107 55.4772 81.0167 55.934L21.1965 72.0655C20.9375 72.1355 20.6872 72.1687 20.4475 72.1687C19.114 72.1687 18.1252 71.1327 18.1252 69.5822V54.8577C18.1252 53.0272 19.5007 51.1757 21.1947 50.719L81.0167 34.5875C81.2757 34.5175 81.5242 34.4842 81.764 34.4842ZM81.764 31.5547C81.2574 31.5567 80.7532 31.625 80.2642 31.7578L20.444 47.891C17.4655 48.6942 15.2167 51.6902 15.2167 54.8595V69.584C15.2167 72.7287 17.4672 75.1 20.4527 75.1C20.9593 75.0986 21.4635 75.0309 21.9525 74.8987L81.7745 58.7672C84.753 57.964 87 54.968 87 51.7987V37.0743C87 33.9295 84.7495 31.5582 81.764 31.5582V31.5547Z" fill="white"></path>
<path d="M68.8017 37.8792L8.98149 54.0125C7.28749 54.4692 5.91199 53.3597 5.91199 51.5292V36.8047C5.91199 34.9742 7.28749 33.1227 8.98149 32.666L68.8035 16.5327C70.4975 16.076 71.873 17.1855 71.873 19.016V33.7405C71.873 35.571 70.4975 37.4225 68.8035 37.8792H68.8017Z" fill="#DA0000"></path>
<path d="M69.5472 16.4295C70.8807 16.4295 71.8695 17.4655 71.8695 19.016V33.7405C71.8695 35.571 70.494 37.4225 68.8 37.8792L8.9815 54.0125C8.73744 54.0796 8.48561 54.1143 8.2325 54.1157C6.899 54.1157 5.91025 53.0798 5.91025 51.5293V36.8047C5.91025 34.9742 7.28575 33.1227 8.97975 32.666L68.8017 16.5327C69.0458 16.4657 69.2976 16.4309 69.5507 16.4295M69.5507 13.5C69.052 13.5 68.5497 13.57 68.051 13.7012L8.22725 29.8363C5.247 30.6395 3 33.6355 3 36.8047V51.5293C3 54.674 5.2505 57.0452 8.236 57.0452C8.73475 57.0452 9.237 56.9753 9.73575 56.8423L69.556 40.7107C72.5362 39.9075 74.7832 36.9115 74.7832 33.7422V19.016C74.7832 15.8695 72.5327 13.5 69.5472 13.5H69.5507Z" fill="white"></path>
<path d="M81.0168 55.276L21.1965 39.1445C19.5025 38.6878 18.127 36.8328 18.127 35.0058V20.2778C18.127 18.4473 19.5025 17.3378 21.1965 17.7945L81.0185 33.926C82.7125 34.3828 84.088 36.2378 84.088 38.0648V52.7893C84.088 54.6198 82.7125 55.7293 81.0185 55.2725V55.276H81.0168Z" fill="black"></path>
<path d="M68.8017 71.348L8.98149 55.2147C7.28749 54.758 5.91199 52.903 5.91199 51.076V36.3515C5.91199 34.521 7.28749 33.4115 8.98149 33.8683L68.8035 49.9998C70.4975 50.4565 71.873 52.3115 71.873 54.1385V68.863C71.873 70.6935 70.4975 71.803 68.8035 71.3463V71.3497L68.8017 71.348Z" fill="#03A700"></path>
<path d="M81.0168 55.934L21.1965 72.0655C19.5025 72.5222 18.127 71.4127 18.127 69.5822V54.8577C18.127 53.0272 19.5025 51.1757 21.1965 50.719L81.0185 34.5875C82.7125 34.1307 84.088 35.2402 84.088 37.0707V51.7952C84.088 53.6257 82.7125 55.4772 81.0185 55.934H81.0168Z" fill="black"></path>
<path d="M68.8017 37.8792L8.98149 54.0125C7.28749 54.4692 5.91199 53.3597 5.91199 51.5292V36.8047C5.91199 34.9742 7.28749 33.1227 8.98149 32.666L68.8035 16.5327C70.4975 16.076 71.873 17.1855 71.873 19.016V33.7405C71.873 35.571 70.4975 37.4225 68.8035 37.8792H68.8017Z" fill="#03A700"></path>
<path d="M24.2678 60.1515C24.2678 56.9507 26.3398 54.611 29.4145 53.7797C32.0693 53.0657 33.9295 53.9687 34.1413 55.9287L31.1313 56.739C30.9353 55.969 30.3053 55.598 29.4145 55.836C28.1353 56.1825 27.3268 57.4687 27.3268 59.252C27.3268 61.0352 28.1353 61.9015 29.544 61.5217C30.3525 61.303 31.3728 60.624 31.5198 59.3762L29.369 59.9572V58.1775L34.192 56.8755V61.9977L31.5215 62.717L31.5373 60.4857C31.182 61.9732 30.2913 63.2157 28.431 63.7162C25.8918 64.4005 24.2713 62.9567 24.2713 60.148H24.2678V60.1515ZM35.8388 52.2432L40.4028 51.013C43.0085 50.3095 44.384 51.013 44.384 52.8487C44.384 54.1997 43.6875 55.318 42.2788 56.116C43.362 55.864 44.2055 56.459 44.237 57.495L44.3035 59.273L41.3443 60.071L41.2638 58.2405C41.2148 57.3077 40.7633 57.0382 39.9373 57.264L38.8033 57.5685V60.7552L35.8405 61.5532V52.2415L35.837 52.245L35.8388 52.2432ZM40.065 55.4475C40.94 55.213 41.4073 54.5007 41.4073 53.792C41.4073 53.0832 40.954 52.7175 40.0318 52.9677L38.8015 53.3002V55.7922L40.065 55.451V55.4475ZM47.7178 49.0407L52.7823 47.6757L55.437 56.27L52.2485 57.1275L51.7953 55.3582L48.6558 56.2052L48.1693 58.2282L45.0473 59.07L47.7178 49.0407ZM50.194 45.3675L53.0903 44.587L51.0848 47.4255L48.7555 48.0537L50.1975 45.3675H50.194ZM51.4068 53.6397L50.2273 48.9777L49.0478 54.2802L51.4103 53.6432L51.4068 53.6397ZM57.558 48.458L54.7405 49.2157V47.142L63.4485 44.7935V46.8672L60.631 47.625V54.863L57.5545 55.6942V48.4562L57.558 48.458Z" fill="white"></path>
<path d="M64.4863 44.5187L67.5628 43.691V53.0027L64.4863 53.8305V44.5187Z" fill="white"></path>
<path d="M68.9033 49.4362L71.8958 48.6277C71.9623 49.669 72.6413 50.0697 73.609 49.8072C74.3685 49.6025 74.904 49.095 74.904 48.4842C74.904 47.9137 74.4035 47.7562 72.6238 47.8332C70.4223 47.9242 69.1763 47.5095 69.1763 45.9362C69.1763 44.1285 70.7145 42.627 73.336 41.9182C75.9418 41.2147 77.6585 41.948 77.7373 43.9587L74.8235 44.7445C74.7903 43.8607 74.2565 43.4495 73.3518 43.6945C72.6395 43.8852 72.1863 44.342 72.1863 44.8582C72.1863 45.4567 72.769 45.4952 74.4998 45.4182C76.7975 45.3132 77.9805 45.7752 77.9805 47.3625C77.9805 49.27 76.297 50.8782 73.5793 51.6097C70.795 52.3605 68.919 51.615 68.9033 49.4327V49.4362ZM15.7015 42.5745C15.7015 39.3737 17.7735 37.034 20.8483 36.2027C23.503 35.4887 25.3633 36.3917 25.575 38.3517L22.565 39.1637C22.369 38.3937 21.739 38.0227 20.8518 38.2607C19.5725 38.6072 18.764 39.8935 18.764 41.6767C18.764 43.46 19.5725 44.3262 20.9813 43.9465C21.7898 43.7277 22.81 43.0487 22.957 41.801L20.8063 42.382V40.6022L25.6293 39.3002V44.4225L22.957 45.1417L22.9745 42.9105C22.6193 44.398 21.7285 45.6405 19.8683 46.141C17.329 46.8252 15.7085 45.3815 15.7085 42.5727H15.7033L15.7015 42.5745ZM27.2725 34.668L30.349 33.8367V43.1485L27.2725 43.9797V34.668ZM32.274 33.3187L36.838 32.0885C39.4438 31.385 40.8193 32.0885 40.8193 33.9242C40.8193 35.2752 40.1228 36.3935 38.714 37.1915C39.7973 36.9395 40.639 37.5345 40.6723 38.5705L40.7388 40.3485L37.7778 41.1465L37.6973 39.316C37.6483 38.3832 37.1968 38.1137 36.3708 38.3395L35.2368 38.644V41.8307L32.2775 42.6287V33.317L32.2723 33.3205L32.274 33.3187ZM36.4968 36.523C37.3718 36.2885 37.839 35.5762 37.839 34.8675C37.839 34.1587 37.3858 33.793 36.4635 34.0432L35.2333 34.3757V36.8677L36.4968 36.5265V36.523ZM41.8395 35.3767C41.8395 32.4945 44.0568 29.95 47.0825 29.1327C50.159 28.305 52.3255 29.6525 52.3255 32.547C52.3255 35.4415 50.124 38.0262 47.0825 38.8452C44.0235 39.6695 41.8395 38.3535 41.8395 35.3767ZM47.0808 36.7855C48.311 36.453 49.186 35.1597 49.186 33.394C49.186 31.6282 48.311 30.86 47.0808 31.1925C45.8838 31.5162 44.9755 32.7902 44.9755 34.5297C44.9755 36.2692 45.8803 37.111 47.0808 36.7855ZM53.036 33.8315L56.0285 33.023C56.095 34.0642 56.774 34.465 57.7418 34.2025C58.5013 33.9977 59.0385 33.4902 59.0385 32.8795C59.0385 32.309 58.538 32.1515 56.7583 32.2285C54.5568 32.3195 53.3108 31.9047 53.3108 30.3315C53.3108 28.5237 54.849 27.0222 57.4705 26.3135C60.0763 25.61 61.793 26.3432 61.8718 28.354L58.958 29.1397C58.9248 28.256 58.391 27.8447 57.4863 28.0897C56.774 28.2805 56.3208 28.7372 56.3208 29.2517C56.3208 29.8502 56.9035 29.8887 58.6343 29.8117C60.932 29.7067 62.115 30.1687 62.115 31.756C62.115 33.6635 60.4315 35.2717 57.7138 36.0032C54.9295 36.754 53.0535 36.0085 53.0378 33.8262V33.8297L53.036 33.8315Z" fill="white"></path>
</svg>