<svg width="90" height="90" viewBox="0 0 90 90" fill="none" xmlns="http://www.w3.org/2000/svg">
<circle cx="45" cy="45" r="45" fill="white"></circle>
<path d="M81.0152 55.8561L21.1956 40.0192C19.5017 39.5712 18.1263 37.7495 18.1263 35.9559V21.4962C18.1263 19.699 19.5017 18.6088 21.1956 19.0585L81.0152 34.8954C82.7092 35.3434 84.0846 37.1651 84.0846 38.9587V53.4149C84.0846 55.2121 82.7092 56.3023 81.0152 55.8526V55.8561Z" fill="black"></path>
<path d="M20.4502 18.957C20.7031 18.9579 20.9548 18.9915 21.1991 19.0568L81.0188 34.8937C82.7127 35.3416 84.0881 37.1633 84.0881 38.957V53.4132C84.0881 54.9356 83.1012 55.9523 81.766 55.9523C81.513 55.9509 81.2613 55.9167 81.017 55.8508L21.1991 40.014C19.5052 39.566 18.1298 37.7443 18.1298 35.9506V21.4962C18.1298 19.9738 19.1167 18.957 20.4519 18.957H20.4502ZM20.4502 16.0819C17.4648 16.0819 15.2144 18.4111 15.2144 21.4962V35.9524C15.2144 39.0655 17.4613 42.0054 20.4414 42.7946L80.261 58.6315C80.7598 58.7645 81.2655 58.8292 81.7607 58.8292C84.7461 58.8292 86.9948 56.5 86.9948 53.4149V38.9587C86.9948 35.8456 84.7479 32.9057 81.7677 32.1165L21.9481 16.2797C21.459 16.1487 20.9566 16.0822 20.4502 16.0819Z" fill="white"></path>
<path d="M68.8007 71.6352L8.98289 55.7948C7.28896 55.3468 5.91351 53.5252 5.91351 51.7315V37.2753C5.91351 35.4781 7.28896 34.3879 8.98289 34.8377L68.8025 50.6745C70.4964 51.1225 71.8719 52.9442 71.8719 54.7379V69.194C71.8719 70.9912 70.4964 72.0814 68.8025 71.6317V71.6352H68.8007Z" fill="#DA0000"></path>
<path d="M8.23741 34.7362C8.47715 34.7362 8.72739 34.7694 8.98638 34.8377L68.806 50.6745C70.4999 51.1225 71.8754 52.9442 71.8754 54.7379V69.194C71.8754 70.7165 70.8884 71.7332 69.5532 71.7332C69.3135 71.7332 69.0632 71.6999 68.8042 71.6334L8.98288 55.7966C7.28895 55.3486 5.9135 53.5269 5.9135 51.7332V37.2753C5.9135 35.7529 6.90046 34.7362 8.23566 34.7362M8.23916 31.861C5.25203 31.861 3.00162 34.1902 3.00162 37.2753V51.7315C3.00162 54.8446 5.24853 57.7845 8.22866 58.5737L68.0483 74.4106C68.547 74.5436 69.0527 74.6083 69.548 74.6083C72.5333 74.6083 74.7837 72.2792 74.7837 69.194V54.7379C74.7837 51.6247 72.5368 48.6849 69.5567 47.8956L9.73885 32.0588C9.24012 31.9258 8.73439 31.861 8.23916 31.861Z" fill="white"></path>
<path d="M81.0152 56.5018L21.1956 72.3386C19.5017 72.7866 18.1263 71.6964 18.1263 69.901V55.4448C18.1263 53.6476 19.5017 51.8295 21.1956 51.3815L81.0152 35.5446C82.7092 35.0966 84.0846 36.1868 84.0846 37.9823V52.4384C84.0846 54.2356 82.7092 56.0538 81.0152 56.5018Z" fill="black"></path>
<path d="M81.7625 35.4431C83.0959 35.4431 84.0846 36.4598 84.0846 37.9823V52.4385C84.0846 54.2356 82.7092 56.0538 81.0152 56.5018L21.1956 72.3387C20.9366 72.4069 20.6864 72.4402 20.4467 72.4402C19.1132 72.4402 18.1245 71.4234 18.1245 69.901V55.4448C18.1245 53.6477 19.4999 51.8295 21.1939 51.3815L81.0135 35.5446C81.2725 35.4764 81.5227 35.4431 81.7625 35.4431ZM81.7625 32.568C81.2637 32.568 80.7615 32.6362 80.2628 32.7657L20.4449 48.6061C17.4665 49.3953 15.2179 52.3352 15.2179 55.4483V69.9045C15.2179 72.9931 17.4683 75.3188 20.4537 75.3188C20.96 75.3173 21.464 75.2509 21.9533 75.121L81.773 59.2842C84.7531 58.4967 87 55.5551 87 52.4419V37.9858C87 34.8972 84.7496 32.5715 81.7642 32.5715L81.7625 32.568Z" fill="white"></path>
<path d="M68.8007 38.7767L8.98289 54.6153C7.28896 55.0633 5.91351 53.9731 5.91351 52.1777V37.7215C5.91351 35.9243 7.28896 34.1062 8.98289 33.6582L68.8025 17.8178C70.4964 17.3698 71.8719 18.46 71.8719 20.2555V34.7116C71.8719 36.5088 70.4964 38.327 68.8025 38.775L68.8007 38.7767Z" fill="#DA0000"></path>
<path d="M69.5462 17.7181C70.8814 17.7181 71.8684 18.7348 71.8684 20.2572V34.7134C71.8684 36.5106 70.4929 38.3287 68.799 38.7767L8.98288 54.6153C8.73863 54.6813 8.48689 54.7154 8.23391 54.7168C6.90046 54.7168 5.91175 53.7001 5.91175 52.1777V37.7215C5.91175 35.9243 7.2872 34.1062 8.98113 33.6582L68.8007 17.8178C69.0451 17.7525 69.2968 17.719 69.5497 17.7181M69.5497 14.8412C69.051 14.8412 68.5487 14.9094 68.05 15.0389L8.22866 30.8793C5.24853 31.6685 3.00162 34.6084 3.00162 37.7215V52.1777C3.00162 55.2663 5.25203 57.592 8.23741 57.592C8.74371 57.5905 9.24773 57.5241 9.7371 57.3942L69.555 41.5574C72.5351 40.7682 74.782 37.8283 74.782 34.7151V20.2555C74.782 17.1686 72.5316 14.8412 69.5462 14.8412H69.5497Z" fill="white"></path>
<path d="M81.0152 55.8561L21.1956 40.0192C19.5017 39.5712 18.1263 37.7495 18.1263 35.9559V21.4962C18.1263 19.699 19.5017 18.6088 21.1956 19.0585L81.0152 34.8954C82.7092 35.3434 84.0846 37.1651 84.0846 38.9587V53.4149C84.0846 55.2121 82.7092 56.3023 81.0152 55.8526V55.8561Z" fill="black"></path>
<path d="M68.8007 71.6352L8.98289 55.7948C7.28896 55.3468 5.91351 53.5252 5.91351 51.7315V37.2753C5.91351 35.4781 7.28896 34.3879 8.98289 34.8377L68.8025 50.6745C70.4964 51.1225 71.8719 52.9442 71.8719 54.7379V69.194C71.8719 70.9912 70.4964 72.0814 68.8025 71.6317V71.6352H68.8007Z" fill="#FAD749"></path>
<path d="M81.0152 56.5018L21.1956 72.3386C19.5017 72.7866 18.1263 71.6964 18.1263 69.901V55.4448C18.1263 53.6476 19.5017 51.8295 21.1956 51.3815L81.0152 35.5446C82.7092 35.0966 84.0846 36.1868 84.0846 37.9823V52.4384C84.0846 54.2356 82.7092 56.0538 81.0152 56.5018Z" fill="black"></path>
<path d="M68.8007 38.7767L8.98289 54.6153C7.28896 55.0633 5.91351 53.9731 5.91351 52.1777V37.7215C5.91351 35.9243 7.28896 34.1062 8.98289 33.6582L68.8025 17.8178C70.4964 17.3698 71.8719 18.46 71.8719 20.2555V34.7116C71.8719 36.5088 70.4964 38.327 68.8025 38.775L68.8007 38.7767Z" fill="#FAD749"></path>
<path d="M27.8366 54.9933L33.2142 53.5689C35.8005 52.8829 37.4665 53.3432 37.4665 55.0196C37.4665 56.0013 36.924 57.0303 35.2546 57.725C37.1672 57.5675 37.9722 58.3042 37.9722 59.6797C37.9722 61.6256 36.3798 63.3143 33.5869 64.051L27.8349 65.5734V54.9916V54.9951L27.8366 54.9933ZM32.7819 57.97C33.6814 57.7302 34.1679 57.0968 34.1679 56.4318C34.1679 55.7668 33.6254 55.5323 32.7434 55.7651L31.2245 56.1675V58.383L32.7784 57.9717L32.7819 57.97ZM32.9692 62.1453C33.9246 61.8933 34.4881 61.2843 34.4881 60.5249C34.4881 59.7654 33.9456 59.5309 32.9884 59.7829L31.228 60.2501V62.6073L32.9692 62.1453ZM41.5141 51.371L47.3798 49.8188L50.4527 59.5887L46.7604 60.5669L46.2354 58.5544L42.6008 59.5169L42.0391 61.8163L38.4237 62.7735L41.5158 51.371H41.5141ZM45.7857 56.6015L44.419 51.301L43.0523 57.3277L45.7874 56.605V56.6015H45.7857ZM50.7905 54.1831C50.7905 50.9073 53.2631 48.0391 56.784 47.1047C59.7448 46.3224 62.123 47.3689 62.368 49.817L58.7894 50.7655C58.5636 49.6246 57.7569 49.2518 56.7297 49.5231C55.398 49.8765 54.4251 51.224 54.4251 53.2172C54.4251 55.2103 55.4173 56.1658 56.805 55.8001C57.7972 55.5358 58.5846 54.6644 58.8646 53.3239L62.424 52.3807C62.0495 55.0738 59.8568 57.3312 56.8032 58.1415C53.2824 59.0742 50.7905 57.5377 50.7905 54.1831ZM63.7399 45.4877L67.28 44.5498V50.1653L71.2716 43.491L74.999 42.5041L71.4589 48.3296L75.5432 52.9424L71.5166 54.0081L68.351 50.4803L67.2835 52.2984V55.1316L63.7434 56.0695V45.4877H63.7399Z" fill="white"></path>
<path d="M14.8994 42.0053C14.8994 38.7295 17.372 35.8613 20.8929 34.9269C23.8538 34.1446 26.2319 35.1911 26.4769 37.6392L22.8983 38.5877C22.6726 37.4468 21.8676 37.074 20.8369 37.3453C19.5052 37.6987 18.5322 39.0479 18.5322 41.0394C18.5322 43.0308 19.5245 43.988 20.9122 43.6223C21.9044 43.358 22.6918 42.4866 22.9718 41.1461L26.5312 40.2029C26.1567 42.896 23.964 45.1534 20.9104 45.9637C17.386 46.8964 14.8976 45.3582 14.8976 42.0036V42.0071L14.8994 42.0053ZM29.8315 32.7849L35.6956 31.2328L38.7684 41.0026L35.0761 41.9808L34.5511 39.9702L30.9165 40.9326L30.3548 43.232L26.7377 44.1892L29.8298 32.7884L29.8315 32.7849ZM34.1031 38.012L32.7364 32.7114L31.3697 38.7382L34.1049 38.0155L34.1031 38.012ZM39.2007 37.249L42.6673 36.3303C42.7408 37.5133 43.5282 37.97 44.6535 37.6707C45.5337 37.4363 46.1531 36.864 46.1531 36.1676C46.1531 35.5183 45.5722 35.3416 43.5125 35.4291C40.9646 35.5358 39.5209 35.0616 39.5209 33.2732C39.5209 31.2153 41.3006 29.5108 44.335 28.7094C47.3536 27.9096 49.3398 28.7444 49.4325 31.0315L46.0604 31.9257C46.0219 30.923 45.4059 30.4558 44.3542 30.7323C43.5282 30.9493 43.0068 31.469 43.0068 32.0535C43.0068 32.7324 43.6805 32.7762 45.6859 32.6887C48.3458 32.5697 49.7125 33.0947 49.7125 34.8954C49.7125 37.0618 47.7648 38.8922 44.615 39.7252C41.3933 40.5791 39.2182 39.7287 39.2007 37.249ZM51.2314 27.1204L54.7908 26.1772V30.244L58.6319 29.2273V25.1605L62.1913 24.2173V34.7991L58.6319 35.7423V31.581L54.7908 32.5977V36.759L51.2314 37.7022V27.1204Z" fill="black"></path>
</svg>