<svg xmlns="http://www.w3.org/2000/svg" width="206" height="74" fill="#fff" xmlns:v="https://vecta.io/nano"><path d="M26.546 45.46L2.397 31.649C.895 30.789 0 29.252 0 27.533c0-1.714.895-3.256 2.392-4.116L42.135.637a4.84 4.84 0 0 1 4.8 0l19.679 11.258a4.69 4.69 0 0 1 2.397 4.111c0 1.714-.895 3.256-2.392 4.116l-17.037 9.77-23.037-13.177v28.75-.005zm-4.133-28.787L4.464 26.963a.64.64 0 0 0-.331.57.64.64 0 0 0 .331.57l17.949 10.264V16.672zm6.156-3.531l21.008 12.016 14.971-8.582a.64.64 0 0 0 .331-.57.64.64 0 0 0-.331-.57L44.869 4.178a.67.67 0 0 0-.667 0l-15.633 8.963z"></path><path d="M46.887 73.995c-.825 0-1.649-.215-2.398-.645L24.81 62.097a4.75 4.75 0 0 1-2.398-4.116V40.736l27.175-15.579 2.061 1.193.033 1.198v41.69a4.69 4.69 0 0 1-2.398 4.116c-.748.43-1.573.645-2.398.645v-.005zm-20.341-30.9v14.886c0 .236.125.451.331.57l19.679 11.253c.288.167.542.07.667 0s.331-.242.331-.57V31.053L26.546 43.095zm52.306-2.241H73.26l1.502-6.019h18.865l-1.502 6.019H86.7l-4.296 16.594h-7.849l4.296-16.594zm17.227-6.013h8.836c5.56 0 8.429 2.128 8.429 5.814 0 4.02-2.387 6.927-6.14 8.147 2.186 0 3.444 1.725 3.14 4.192l-.58 4.46h-7.54l.613-4.767c.239-1.725-.309-2.467-1.773-2.467h-1.329l-1.806 7.233h-7.507l5.663-22.613h-.005zm6.547 10.307c2.045 0 2.967-1.687 2.967-3.278 0-1.016-.613-1.789-1.98-1.789h-1.367l-1.264 5.068h1.638.006zm12.112 2.735l3.276-13.048h7.708l-3.412 13.59c-.548 2.198.168 3.686 2.116 3.686 1.741 0 2.663-1.284 3.243-3.617l3.445-13.655h7.707l-3.444 13.757c-1.535 6.083-5.392 9.533-11.77 9.533-6.721 0-10.507-3.751-8.869-10.242v-.005zm27.669-13.042h9.893l.272 16.019 3.753-16.019h7.301l-5.663 22.613h-9.893l-.272-16.019-3.753 16.019h-7.301l5.663-22.613zm25.076 0h16.75l-1.465 5.916h-9.042l-1.058 4.192h8.392l-1.432 5.68h-8.392l-1.703 6.83h-7.708l5.663-22.613-.005-.005zm15.66 14.09c0-8.652 5.527-14.601 13.034-14.601 5.934 0 9.823 3.617 9.823 9.297 0 8.786-5.798 14.364-12.964 14.364-5.934 0-9.893-3.547-9.893-9.06zm10.371 3.079c2.045 0 3.444-2.671 4.127-5.917.478-2.332.684-5.777-1.941-5.777-2.083 0-3.515 2.601-4.199 5.777-.477 2.332-.716 5.917 2.013 5.917z"></path></svg>