<svg width="69" height="74" viewBox="0 0 69 74" fill="none" xmlns="http://www.w3.org/2000/svg">
<g clip-path="url(#clip0_10638_61723)">
<rect width="69" height="74" fill="white"></rect>
<g clip-path="url(#clip1_10638_61723)">
<path d="M26.55 45.46L2.4 31.65C0.9 30.79 0 29.25 0 27.53C0 25.81 0.89 24.27 2.39 23.41L42.13 0.640002C43.62 -0.209998 45.44 -0.209998 46.93 0.640002L66.61 11.9C68.1 12.73 69.01 14.31 69.01 16.01C69.01 17.72 68.12 19.27 66.62 20.13L49.58 29.9L26.54 16.72V45.47L26.55 45.46ZM22.41 16.67L4.46 26.96C4.25 27.07 4.13 27.29 4.13 27.53C4.13 27.77 4.25 27.99 4.46 28.1L22.41 38.36V16.67ZM28.57 13.14L49.58 25.16L64.55 16.58C64.76 16.47 64.88 16.25 64.88 16.01C64.88 15.77 64.76 15.55 64.55 15.44L44.87 4.18C44.66 4.06 44.41 4.06 44.2 4.18L28.57 13.14Z" fill="#DA0000"></path>
<path d="M46.8902 73.99C46.0602 73.99 45.2402 73.78 44.4902 73.35L24.8102 62.1C23.3302 61.26 22.4202 59.69 22.4102 57.98V40.74L49.5802 25.16L51.6402 26.35L51.6702 27.55V69.24C51.6702 70.95 50.7602 72.52 49.2702 73.36C48.5202 73.79 47.7002 74 46.8702 74L46.8902 73.99ZM26.5502 43.09V57.98C26.5502 58.22 26.6702 58.43 26.8802 58.55L46.5602 69.8C46.8502 69.97 47.1002 69.87 47.2302 69.8C47.3602 69.73 47.5602 69.56 47.5602 69.23V31.05L26.5502 43.09Z" fill="#DA0000"></path>
</g>
</g>
<defs>
<clipPath id="clip0_10638_61723">
<rect width="69" height="74" fill="white"></rect>
</clipPath>
<clipPath id="clip1_10638_61723">
<rect width="69.01" height="74" fill="white"></rect>
</clipPath>
</defs>
</svg>